<?xml version="1.0" encoding="UTF-8" standalone="no"?>
<svg
   xmlns:dc="http://purl.org/dc/elements/1.1/"
   xmlns:cc="http://creativecommons.org/ns#"
   xmlns:rdf="http://www.w3.org/1999/02/22-rdf-syntax-ns#"
   xmlns:svg="http://www.w3.org/2000/svg"
   xmlns="http://www.w3.org/2000/svg"
   viewBox="0 0 1000 666.66669"
   height="666.66669"
   width="1000"
   xml:space="preserve"
   id="svg2"
   version="1.1"><metadata
     id="metadata8"><rdf:RDF><cc:Work
         rdf:about=""><dc:format>image/svg+xml</dc:format><dc:type
           rdf:resource="http://purl.org/dc/dcmitype/StillImage" /></cc:Work></rdf:RDF></metadata><defs
     id="defs6"><clipPath
       id="clipPath18"
       clipPathUnits="userSpaceOnUse"><path
         id="path16"
         d="M 0,500 H 750 V 0 H 0 Z" /></clipPath><clipPath
       id="clipPath30"
       clipPathUnits="userSpaceOnUse"><path
         id="path28"
         d="M 12.7879,449.584 H 736.752 V 46.2229 H 12.7879 Z" /></clipPath><clipPath
       id="clipPath54"
       clipPathUnits="userSpaceOnUse"><path
         id="path52"
         d="M 0,500 H 750 V 0 H 0 Z" /></clipPath><clipPath
       id="clipPath98"
       clipPathUnits="userSpaceOnUse"><path
         id="path96"
         d="M 0,500 H 750 V 0 H 0 Z" /></clipPath><clipPath
       id="clipPath170"
       clipPathUnits="userSpaceOnUse"><path
         id="path168"
         d="M 0,500 H 750 V 0 H 0 Z" /></clipPath><clipPath
       id="clipPath210"
       clipPathUnits="userSpaceOnUse"><path
         id="path208"
         d="M 0,500 H 750 V 0 H 0 Z" /></clipPath><clipPath
       id="clipPath382"
       clipPathUnits="userSpaceOnUse"><path
         id="path380"
         d="M 0,500 H 750 V 0 H 0 Z" /></clipPath><clipPath
       id="clipPath494"
       clipPathUnits="userSpaceOnUse"><path
         id="path492"
         d="M 0,500 H 750 V 0 H 0 Z" /></clipPath></defs><g
     transform="matrix(1.3333333,0,0,-1.3333333,0,666.66667)"
     id="g10"><g
       id="g12"><g
         clip-path="url(#clipPath18)"
         id="g14"><g
           transform="translate(735.1105,261.6777)"
           id="g20"><path
             id="path22"
             style="fill:#5ae4a7;fill-opacity:1;fill-rule:nonzero;stroke:none"
             d="m 0,0 c -7.008,79.009 -57.517,146.21 -134.168,175.141 -20.152,7.607 -41.963,12.701 -64.296,12.764 -91.272,0.259 -206.493,-49.831 -263.876,-56.758 -57.384,-6.925 -116.266,51.805 -200.401,-19.61 -84.135,-71.415 -90.107,-256.967 53.632,-308.919 143.738,-51.953 237.41,27.793 300.831,1.321 63.421,-26.47 182.372,-30.845 259.192,18.901 C -3.535,-147.662 6.081,-68.571 0,0" /></g><g
           id="g24"><g
             id="g26" /><g
             id="g38"><g
               style="opacity:0.80000299"
               id="g36"
               clip-path="url(#clipPath30)"><g
                 id="g34"
                 transform="translate(735.1105,261.6777)"><path
                   id="path32"
                   style="fill:#ffffff;fill-opacity:1;fill-rule:nonzero;stroke:none"
                   d="m 0,0 c -7.008,79.009 -57.517,146.21 -134.168,175.141 -20.152,7.607 -41.963,12.701 -64.296,12.764 -91.272,0.259 -206.493,-49.831 -263.876,-56.758 -57.384,-6.925 -116.266,51.805 -200.401,-19.61 -84.135,-71.415 -90.107,-256.967 53.632,-308.919 143.738,-51.953 237.41,27.793 300.831,1.321 63.421,-26.47 182.372,-30.845 259.192,18.901 C -3.535,-147.662 6.081,-68.571 0,0" /></g></g></g></g></g></g><g
       transform="translate(668.5245,45.1602)"
       id="g40"><path
         id="path42"
         style="fill:none;stroke:#1a2e35;stroke-width:1;stroke-linecap:butt;stroke-linejoin:miter;stroke-miterlimit:10;stroke-dasharray:none;stroke-opacity:1"
         d="M 0,0 H 28.883" /></g><g
       transform="translate(55.3229,45.1602)"
       id="g44"><path
         id="path46"
         style="fill:none;stroke:#1a2e35;stroke-width:1;stroke-linecap:butt;stroke-linejoin:miter;stroke-miterlimit:10;stroke-dasharray:none;stroke-opacity:1"
         d="M 0,0 H 607.277" /></g><g
       id="g48"><g
         clip-path="url(#clipPath54)"
         id="g50"><g
           transform="translate(61.5997,94.7773)"
           id="g56"><path
             id="path58"
             style="fill:#1a2e35;fill-opacity:1;fill-rule:nonzero;stroke:none"
             d="M 0,0 C 1.689,-0.737 5.819,-0.645 5.822,-0.645 5.865,-0.643 4.934,2.06 4.856,2.224 3.95,4.119 1.084,7.25 -1.248,6.935 -2.928,6.708 -3.862,5.026 -3.483,3.444 -3.096,1.829 -1.438,0.629 0,0" /></g><g
           transform="translate(63.025,82.8145)"
           id="g60"><path
             id="path62"
             style="fill:#1a2e35;fill-opacity:1;fill-rule:nonzero;stroke:none"
             d="m 0,0 c 1.752,-0.256 5.438,0.812 5.731,0.899 0.582,-2.063 1.347,-4.133 2.236,-6.186 0.507,-1.174 1.054,-2.34 1.617,-3.503 -0.336,0.492 -0.64,0.931 -0.689,0.987 -1.375,1.59 -4.966,3.852 -7.131,2.932 -1.561,-0.663 -2.018,-2.53 -1.235,-3.956 0.8,-1.456 2.716,-2.176 4.269,-2.402 1.576,-0.23 4.737,0.619 5.57,0.854 0.221,-0.444 0.437,-0.89 0.659,-1.332 1.068,-2.126 2.142,-4.242 3.132,-6.351 0.35,-0.742 0.666,-1.486 0.986,-2.23 -0.299,0.437 -0.555,0.804 -0.6,0.855 -1.375,1.589 -4.965,3.851 -7.131,2.931 -1.56,-0.662 -2.018,-2.53 -1.234,-3.956 0.8,-1.455 2.716,-2.176 4.269,-2.401 1.504,-0.22 4.428,0.537 5.42,0.812 0.304,-0.771 0.611,-1.543 0.871,-2.305 0.166,-0.523 0.362,-1.015 0.499,-1.551 0.147,-0.527 0.293,-1.049 0.437,-1.566 0.241,-1.005 0.496,-2.041 0.706,-3.028 0.152,-0.685 0.285,-1.341 0.419,-2.001 -0.339,0.743 -1.033,2.185 -1.105,2.299 -1.118,1.779 -4.324,4.558 -6.605,3.977 -1.643,-0.418 -2.378,-2.195 -1.819,-3.723 0.57,-1.56 2.354,-2.562 3.855,-3.021 1.653,-0.505 5.311,-0.043 5.768,0.018 0.219,-1.094 0.422,-2.159 0.598,-3.167 0.094,-0.534 0.175,-1.035 0.258,-1.539 h 1.455 c -0.107,0.58 -0.22,1.174 -0.343,1.795 -0.218,1.111 -0.473,2.294 -0.747,3.505 0.275,0.11 1.835,0.741 3.218,1.513 1.205,-1.304 4.291,-2.83 4.69,-3.024 -0.42,-1.033 -0.838,-2.033 -1.249,-2.971 -0.123,-0.284 -0.242,-0.548 -0.362,-0.818 h 1.532 c 0.038,0.091 0.076,0.18 0.115,0.275 0.431,1.047 0.871,2.175 1.311,3.336 0.443,-0.093 4.064,-0.828 5.752,-0.447 1.531,0.346 3.385,1.213 4.07,2.726 0.671,1.481 0.071,3.309 -1.537,3.848 -2.23,0.75 -5.635,-1.783 -6.883,-3.475 -0.073,-0.099 -0.751,-1.271 -1.166,-2.017 0.178,0.475 0.355,0.935 0.532,1.428 0.356,0.97 0.682,1.949 1.038,3.001 0.154,0.513 0.309,1.033 0.466,1.557 0.166,0.517 0.276,1.084 0.419,1.63 0.303,1.274 0.548,2.579 0.767,3.899 0.85,-0.308 3.886,-1.365 5.459,-1.254 1.566,0.11 3.529,0.685 4.436,2.077 0.887,1.363 0.57,3.26 -0.936,4.038 -2.092,1.078 -5.841,-0.91 -7.33,-2.393 -0.093,-0.092 -1.042,-1.276 -1.551,-1.936 0.125,0.795 0.253,1.588 0.353,2.395 0.29,2.334 0.51,4.704 0.741,7.069 0.07,0.724 0.149,1.445 0.225,2.167 0.301,-0.115 3.882,-1.448 5.645,-1.324 1.565,0.11 3.529,0.685 4.435,2.077 0.888,1.363 0.571,3.26 -0.935,4.038 -2.092,1.078 -5.841,-0.911 -7.33,-2.393 -0.113,-0.111 -1.476,-1.816 -1.801,-2.268 0.168,1.59 0.35,3.173 0.593,4.726 0.332,2.143 0.776,4.227 1.356,6.214 0.14,-0.053 3.872,-1.461 5.676,-1.335 1.566,0.11 3.53,0.685 4.436,2.077 0.887,1.363 0.571,3.261 -0.936,4.037 C 43.273,7.198 39.525,5.21 38.035,3.728 37.918,3.611 36.453,1.775 36.21,1.424 c 0.036,0.118 0.059,0.244 0.095,0.362 0.646,2.113 1.537,4.08 2.461,5.88 0.535,1.047 1.106,2.019 1.682,2.95 0.668,-0.333 3.738,-1.824 5.374,-1.889 1.568,-0.063 3.584,0.294 4.637,1.577 1.032,1.258 0.926,3.177 -0.486,4.116 -1.961,1.302 -5.906,-0.263 -7.549,-1.573 -0.089,-0.071 -0.917,-0.896 -1.511,-1.505 0.265,0.417 0.533,0.852 0.795,1.246 0.985,1.482 1.978,2.779 2.866,3.921 0.51,0.644 0.985,1.218 1.435,1.75 0.826,0.013 4.156,0.115 5.612,0.799 1.42,0.667 3.045,1.911 3.388,3.537 0.336,1.591 -0.643,3.246 -2.328,3.427 -2.34,0.252 -5.12,-2.954 -5.975,-4.874 -0.074,-0.166 -0.931,-2.892 -0.888,-2.892 0,0 0.04,0 0.05,0.001 C 45.425,17.754 44.956,17.21 44.456,16.604 43.541,15.48 42.517,14.202 41.497,12.735 40.473,11.271 39.402,9.653 38.428,7.847 37.449,6.037 36.512,4.084 35.807,1.946 35.799,1.922 35.793,1.896 35.786,1.871 c 0.012,0.69 -0.018,2.618 -0.038,2.766 -0.27,2.084 -2.017,5.952 -4.331,6.38 -1.667,0.307 -3.079,-0.998 -3.211,-2.62 -0.136,-1.656 1.064,-3.312 2.235,-4.358 1.32,-1.18 4.984,-2.321 5.276,-2.411 -0.653,-2.042 -1.157,-4.191 -1.548,-6.393 -0.225,-1.258 -0.412,-2.534 -0.583,-3.814 -0.009,0.597 -0.021,1.13 -0.031,1.204 -0.27,2.084 -2.016,5.951 -4.331,6.379 -1.667,0.309 -3.079,-0.998 -3.211,-2.619 -0.136,-1.656 1.065,-3.313 2.235,-4.359 1.188,-1.06 4.292,-2.096 5.117,-2.36 -0.06,-0.491 -0.127,-0.982 -0.185,-1.475 -0.283,-2.361 -0.554,-4.719 -0.891,-7.023 -0.118,-0.813 -0.265,-1.608 -0.408,-2.404 -0.008,0.529 -0.02,0.975 -0.029,1.043 -0.27,2.084 -2.017,5.952 -4.33,6.38 -1.668,0.307 -3.08,-0.999 -3.212,-2.62 -0.136,-1.655 1.065,-3.313 2.235,-4.358 1.133,-1.013 3.991,-1.995 4.97,-2.313 -0.172,-0.811 -0.343,-1.624 -0.546,-2.402 -0.151,-0.528 -0.259,-1.047 -0.439,-1.569 -0.169,-0.521 -0.335,-1.037 -0.5,-1.547 -0.353,-0.972 -0.712,-1.977 -1.08,-2.915 -0.252,-0.656 -0.504,-1.276 -0.755,-1.901 0.127,0.807 0.343,2.393 0.346,2.527 0.032,1.395 -0.464,3.665 -1.45,5.261 0.006,0.206 -0.006,0.411 -0.039,0.615 -0.258,1.606 -1.766,2.799 -3.405,2.363 -2.274,-0.605 -3.716,-4.598 -3.824,-6.695 -0.006,-0.124 0.075,-1.475 0.14,-2.326 -0.115,0.494 -0.22,0.975 -0.344,1.483 -0.238,1.006 -0.506,2.002 -0.789,3.076 -0.156,0.514 -0.313,1.032 -0.472,1.556 -0.146,0.522 -0.366,1.057 -0.549,1.591 -0.45,1.229 -0.965,2.454 -1.512,3.675 0.881,0.211 3.995,1.005 5.246,1.965 1.245,0.955 2.565,2.519 2.554,4.179 -0.012,1.627 -1.322,3.035 -3.008,2.852 -2.339,-0.254 -4.37,-3.981 -4.795,-6.039 -0.025,-0.128 -0.164,-1.639 -0.225,-2.471 -0.334,0.732 -0.664,1.465 -1.027,2.194 -1.044,2.106 -2.168,4.204 -3.281,6.303 -0.341,0.643 -0.673,1.287 -1.007,1.932 0.314,0.072 4.037,0.935 5.437,2.01 1.246,0.955 2.566,2.518 2.555,4.179 -0.012,1.627 -1.323,3.035 -3.008,2.852 -2.34,-0.254 -4.37,-3.981 -4.795,-6.04 -0.031,-0.155 -0.228,-2.329 -0.251,-2.884 -0.736,1.419 -1.458,2.839 -2.111,4.268 -0.906,1.97 -1.685,3.953 -2.297,5.931 0.146,0.033 4.035,0.918 5.47,2.019 C 13,3.893 14.32,5.456 14.308,7.117 14.297,8.743 12.986,10.15 11.3,9.968 8.961,9.714 6.931,5.987 6.506,3.929 6.473,3.768 6.263,1.428 6.255,1.002 6.219,1.119 6.168,1.236 6.134,1.354 5.507,3.475 5.165,5.605 4.943,7.617 4.812,8.786 4.752,9.91 4.718,11.006 c 0.741,0.09 4.125,0.54 5.525,1.389 1.343,0.813 2.827,2.221 2.998,3.874 0.167,1.618 -0.981,3.161 -2.676,3.164 -2.354,0.004 -4.78,-3.478 -5.429,-5.476 -0.035,-0.109 -0.271,-1.254 -0.431,-2.09 -0.007,0.495 -0.025,1.005 -0.023,1.479 0.004,1.779 0.116,3.409 0.227,4.851 0.07,0.82 0.15,1.559 0.232,2.25 0.681,0.469 3.402,2.39 4.239,3.763 0.817,1.34 1.485,3.274 0.875,4.819 -0.597,1.513 -2.327,2.354 -3.833,1.575 -2.09,-1.081 -2.64,-5.289 -2.295,-7.361 0.031,-0.18 0.82,-2.927 0.856,-2.903 0,0 0.033,0.023 0.041,0.028 C 4.932,19.705 4.841,18.992 4.758,18.212 4.614,16.769 4.466,15.138 4.424,13.352 4.378,11.566 4.377,9.625 4.562,7.581 4.744,5.532 5.04,3.386 5.631,1.214 5.637,1.189 5.647,1.165 5.654,1.141 5.284,1.722 4.194,3.313 4.097,3.426 2.722,5.016 -0.868,7.277 -3.034,6.357 -4.595,5.695 -5.052,3.827 -4.269,2.401 -3.468,0.945 -1.553,0.226 0,0" /></g><g
           transform="translate(103.3776,93.8691)"
           id="g64"><path
             id="path66"
             style="fill:#1a2e35;fill-opacity:1;fill-rule:nonzero;stroke:none"
             d="M 0,0 C 0.036,-0.022 0.751,2.745 0.776,2.925 1.066,5.006 0.402,9.198 -1.717,10.222 -3.243,10.959 -4.95,10.072 -5.505,8.543 -6.074,6.982 -5.354,5.067 -4.5,3.75 -3.5,2.203 -0.003,0.002 0,0" /></g><g
           transform="translate(610.6935,87.2734)"
           id="g68"><path
             id="path70"
             style="fill:#1a2e35;fill-opacity:1;fill-rule:nonzero;stroke:none"
             d="M 0,0 C 1.433,-0.626 4.938,-0.547 4.941,-0.547 4.978,-0.546 4.187,1.748 4.121,1.887 3.353,3.496 0.92,6.153 -1.06,5.886 -2.485,5.693 -3.278,4.266 -2.957,2.924 -2.628,1.552 -1.222,0.534 0,0" /></g><g
           transform="translate(611.9034,77.1191)"
           id="g72"><path
             id="path74"
             style="fill:#1a2e35;fill-opacity:1;fill-rule:nonzero;stroke:none"
             d="M 0,0 C 1.486,-0.217 4.615,0.69 4.863,0.764 5.357,-0.987 6.007,-2.745 6.762,-4.486 7.191,-5.483 7.656,-6.473 8.134,-7.46 7.849,-7.042 7.591,-6.671 7.549,-6.622 6.382,-5.273 3.334,-3.354 1.496,-4.134 0.171,-4.696 -0.216,-6.282 0.449,-7.492 1.127,-8.728 2.754,-9.339 4.071,-9.53 c 1.338,-0.196 4.021,0.524 4.729,0.724 0.187,-0.377 0.37,-0.755 0.559,-1.131 0.906,-1.803 1.818,-3.599 2.659,-5.389 0.295,-0.63 0.564,-1.262 0.836,-1.893 -0.254,0.371 -0.471,0.681 -0.509,0.726 -1.167,1.348 -4.214,3.268 -6.053,2.487 -1.324,-0.561 -1.712,-2.147 -1.047,-3.357 0.679,-1.236 2.305,-1.847 3.623,-2.039 1.277,-0.186 3.759,0.457 4.601,0.69 0.258,-0.655 0.517,-1.309 0.739,-1.956 0.141,-0.444 0.307,-0.862 0.423,-1.317 0.125,-0.448 0.249,-0.89 0.371,-1.329 0.205,-0.853 0.421,-1.733 0.6,-2.57 0.128,-0.582 0.241,-1.138 0.355,-1.699 -0.287,0.632 -0.877,1.854 -0.938,1.952 -0.949,1.51 -3.67,3.868 -5.606,3.376 -1.394,-0.355 -2.018,-1.864 -1.544,-3.16 0.485,-1.324 1.999,-2.175 3.273,-2.564 1.402,-0.429 4.507,-0.038 4.895,0.014 0.186,-0.928 0.359,-1.832 0.507,-2.688 0.08,-0.452 0.149,-0.878 0.22,-1.306 h 1.234 c -0.091,0.492 -0.186,0.997 -0.291,1.523 -0.185,0.944 -0.401,1.947 -0.634,2.976 0.234,0.093 1.558,0.629 2.732,1.284 1.021,-1.107 3.641,-2.402 3.98,-2.567 -0.356,-0.877 -0.712,-1.726 -1.059,-2.522 -0.106,-0.241 -0.206,-0.464 -0.309,-0.694 h 1.301 c 0.033,0.078 0.065,0.153 0.097,0.233 0.367,0.889 0.74,1.846 1.114,2.832 0.375,-0.079 3.449,-0.703 4.882,-0.379 1.298,0.294 2.873,1.029 3.455,2.313 0.569,1.257 0.059,2.809 -1.305,3.267 -1.894,0.635 -4.783,-1.514 -5.842,-2.95 -0.062,-0.085 -0.638,-1.079 -0.99,-1.711 0.15,0.403 0.301,0.793 0.451,1.21 0.303,0.825 0.579,1.655 0.881,2.548 0.131,0.436 0.263,0.877 0.395,1.322 0.142,0.438 0.236,0.92 0.356,1.383 0.258,1.081 0.466,2.19 0.651,3.31 0.722,-0.263 3.298,-1.159 4.634,-1.065 1.328,0.093 2.995,0.582 3.765,1.763 0.753,1.156 0.484,2.767 -0.795,3.427 -1.775,0.915 -4.957,-0.773 -6.221,-2.03 -0.079,-0.078 -0.885,-1.083 -1.316,-1.644 0.105,0.675 0.215,1.347 0.299,2.033 0.247,1.981 0.433,3.993 0.629,5.999 0.06,0.615 0.126,1.227 0.191,1.839 0.256,-0.096 3.296,-1.227 4.791,-1.123 1.329,0.094 2.996,0.582 3.764,1.764 0.754,1.156 0.486,2.766 -0.793,3.426 -1.776,0.916 -4.957,-0.772 -6.222,-2.031 -0.095,-0.094 -1.252,-1.542 -1.528,-1.924 0.142,1.349 0.296,2.692 0.502,4.01 0.283,1.819 0.66,3.588 1.152,5.275 0.119,-0.045 3.286,-1.241 4.818,-1.133 1.328,0.094 2.995,0.581 3.765,1.763 0.753,1.157 0.484,2.767 -0.794,3.426 C 36.729,6.11 33.547,4.422 32.282,3.164 32.183,3.065 30.939,1.508 30.733,1.209 c 0.03,0.101 0.049,0.207 0.08,0.307 0.548,1.795 1.305,3.463 2.089,4.991 0.455,0.889 0.939,1.713 1.428,2.505 0.566,-0.283 3.173,-1.549 4.562,-1.605 1.331,-0.053 3.041,0.249 3.935,1.339 0.876,1.067 0.786,2.697 -0.413,3.493 -1.664,1.105 -5.012,-0.223 -6.406,-1.335 -0.076,-0.06 -0.779,-0.759 -1.283,-1.277 0.225,0.354 0.452,0.724 0.675,1.058 0.835,1.258 1.678,2.359 2.432,3.328 0.434,0.547 0.836,1.033 1.218,1.485 0.701,0.012 3.527,0.098 4.763,0.678 1.206,0.566 2.584,1.622 2.875,3.002 0.287,1.35 -0.545,2.756 -1.975,2.909 -1.986,0.215 -4.346,-2.507 -5.071,-4.136 -0.063,-0.141 -0.79,-2.456 -0.754,-2.456 0,0 0.034,0.001 0.043,0.001 -0.377,-0.427 -0.775,-0.889 -1.2,-1.402 C 36.955,13.14 36.086,12.055 35.22,10.81 34.352,9.567 33.442,8.193 32.615,6.66 31.785,5.125 30.989,3.467 30.391,1.652 30.384,1.632 30.38,1.609 30.373,1.589 30.383,2.174 30.357,3.811 30.341,3.937 30.111,5.705 28.63,8.987 26.665,9.351 25.25,9.612 24.052,8.504 23.939,7.128 23.824,5.723 24.843,4.316 25.837,3.429 c 1.12,-1.001 4.23,-1.97 4.477,-2.047 -0.554,-1.733 -0.982,-3.557 -1.313,-5.425 -0.19,-1.069 -0.35,-2.151 -0.495,-3.238 -0.008,0.506 -0.018,0.959 -0.027,1.021 -0.229,1.77 -1.711,5.052 -3.675,5.415 -1.415,0.262 -2.614,-0.847 -2.726,-2.222 -0.115,-1.406 0.903,-2.813 1.897,-3.7 1.008,-0.9 3.643,-1.78 4.343,-2.004 -0.051,-0.417 -0.107,-0.833 -0.157,-1.251 -0.239,-2.004 -0.47,-4.005 -0.756,-5.961 -0.1,-0.69 -0.224,-1.366 -0.346,-2.041 -0.007,0.449 -0.017,0.828 -0.025,0.885 -0.229,1.769 -1.712,5.052 -3.675,5.415 -1.416,0.261 -2.614,-0.847 -2.726,-2.223 -0.115,-1.405 0.903,-2.812 1.897,-3.699 0.961,-0.86 3.387,-1.693 4.218,-1.962 -0.146,-0.689 -0.291,-1.379 -0.463,-2.039 -0.128,-0.449 -0.22,-0.89 -0.373,-1.333 -0.143,-0.442 -0.284,-0.879 -0.424,-1.313 -0.301,-0.824 -0.604,-1.678 -0.918,-2.475 -0.213,-0.555 -0.426,-1.082 -0.64,-1.612 0.108,0.685 0.291,2.03 0.294,2.145 0.027,1.184 -0.394,3.11 -1.231,4.464 0.005,0.175 -0.005,0.349 -0.033,0.523 -0.219,1.363 -1.499,2.376 -2.89,2.005 -1.93,-0.514 -3.154,-3.902 -3.245,-5.683 -0.006,-0.104 0.063,-1.251 0.118,-1.973 -0.097,0.42 -0.186,0.828 -0.292,1.258 -0.202,0.854 -0.429,1.7 -0.67,2.612 -0.131,0.435 -0.265,0.875 -0.4,1.32 -0.123,0.443 -0.31,0.897 -0.466,1.35 -0.382,1.044 -0.819,2.083 -1.283,3.12 0.747,0.178 3.391,0.852 4.452,1.668 1.057,0.81 2.178,2.137 2.168,3.547 -0.01,1.38 -1.122,2.575 -2.553,2.42 -1.986,-0.216 -3.709,-3.379 -4.069,-5.125 -0.022,-0.11 -0.141,-1.392 -0.191,-2.098 -0.285,0.621 -0.565,1.243 -0.872,1.862 -0.887,1.787 -1.841,3.569 -2.785,5.351 -0.29,0.545 -0.571,1.092 -0.855,1.638 0.267,0.061 3.426,0.794 4.615,1.706 1.057,0.811 2.178,2.138 2.168,3.548 -0.011,1.38 -1.122,2.576 -2.553,2.419 C 11.371,-0.518 9.648,-3.681 9.288,-5.428 9.261,-5.56 9.095,-7.404 9.075,-7.876 8.449,-6.672 7.838,-5.467 7.282,-4.254 6.514,-2.581 5.853,-0.897 5.333,0.78 5.457,0.809 8.758,1.56 9.976,2.493 11.033,3.305 12.154,4.631 12.144,6.041 12.134,7.422 11.021,8.616 9.591,8.461 7.605,8.245 5.882,5.082 5.521,3.335 5.493,3.198 5.315,1.212 5.309,0.851 5.278,0.95 5.235,1.05 5.206,1.15 4.674,2.949 4.384,4.759 4.195,6.466 4.084,7.458 4.033,8.412 4.004,9.342 c 0.629,0.076 3.501,0.459 4.689,1.179 1.14,0.69 2.4,1.885 2.545,3.288 0.142,1.373 -0.833,2.682 -2.271,2.685 -1.998,0.004 -4.058,-2.951 -4.608,-4.647 -0.03,-0.093 -0.23,-1.065 -0.366,-1.774 -0.007,0.419 -0.021,0.853 -0.019,1.255 0.003,1.51 0.097,2.894 0.192,4.117 0.06,0.696 0.127,1.324 0.196,1.91 0.578,0.398 2.888,2.029 3.599,3.194 0.693,1.138 1.261,2.779 0.743,4.09 -0.507,1.284 -1.975,1.998 -3.254,1.337 -1.774,-0.917 -2.241,-4.489 -1.947,-6.248 0.025,-0.152 0.695,-2.484 0.726,-2.463 0,0 0.028,0.018 0.035,0.023 C 4.186,16.726 4.108,16.12 4.037,15.458 3.916,14.233 3.79,12.849 3.755,11.332 3.715,9.817 3.715,8.17 3.871,6.436 4.025,4.696 4.276,2.874 4.778,1.031 4.784,1.01 4.793,0.989 4.799,0.968 4.484,1.462 3.56,2.813 3.477,2.908 2.31,4.257 -0.737,6.177 -2.576,5.396 -3.9,4.834 -4.288,3.248 -3.623,2.038 -2.943,0.803 -1.318,0.192 0,0" /></g><g
           transform="translate(646.1525,86.5029)"
           id="g76"><path
             id="path78"
             style="fill:#1a2e35;fill-opacity:1;fill-rule:nonzero;stroke:none"
             d="M 0,0 C 0.031,-0.02 0.638,2.33 0.659,2.482 0.904,4.248 0.342,7.807 -1.457,8.675 -2.752,9.301 -4.201,8.548 -4.673,7.251 -5.155,5.926 -4.544,4.301 -3.819,3.183 -2.97,1.869 -0.002,0.001 0,0" /></g><g
           transform="translate(690.8448,69.585)"
           id="g80"><path
             id="path82"
             style="fill:#1a2e35;fill-opacity:1;fill-rule:nonzero;stroke:none"
             d="m 0,0 c -0.831,-0.363 -2.864,-0.317 -2.866,-0.317 -0.021,0.001 0.437,1.331 0.475,1.412 0.447,0.932 1.858,2.473 3.005,2.319 C 1.441,3.302 1.901,2.475 1.715,1.695 1.524,0.9 0.708,0.31 0,0" /></g><g
           transform="translate(690.1437,63.6953)"
           id="g84"><path
             id="path86"
             style="fill:#1a2e35;fill-opacity:1;fill-rule:nonzero;stroke:none"
             d="m 0,0 c -0.862,-0.125 -2.677,0.4 -2.821,0.443 -0.287,-1.015 -0.663,-2.035 -1.101,-3.045 -0.25,-0.578 -0.518,-1.152 -0.797,-1.724 0.166,0.242 0.316,0.458 0.34,0.485 0.677,0.783 2.444,1.897 3.511,1.444 0.768,-0.327 0.993,-1.247 0.607,-1.948 -0.393,-0.717 -1.337,-1.071 -2.101,-1.182 -0.776,-0.114 -2.332,0.304 -2.742,0.421 -0.109,-0.219 -0.215,-0.439 -0.325,-0.657 -0.525,-1.046 -1.053,-2.088 -1.542,-3.126 -0.172,-0.365 -0.327,-0.731 -0.485,-1.097 0.147,0.215 0.273,0.395 0.296,0.421 0.677,0.782 2.444,1.895 3.51,1.442 0.768,-0.325 0.993,-1.245 0.607,-1.947 -0.394,-0.716 -1.337,-1.071 -2.101,-1.182 -0.741,-0.108 -2.18,0.264 -2.668,0.399 -0.15,-0.379 -0.3,-0.759 -0.428,-1.133 -0.082,-0.258 -0.179,-0.501 -0.246,-0.765 -0.073,-0.259 -0.145,-0.516 -0.215,-0.77 -0.119,-0.495 -0.245,-1.005 -0.349,-1.491 -0.074,-0.337 -0.139,-0.66 -0.206,-0.985 0.167,0.366 0.509,1.075 0.545,1.132 0.55,0.876 2.129,2.244 3.251,1.958 0.809,-0.206 1.171,-1.081 0.896,-1.833 -0.282,-0.768 -1.16,-1.261 -1.899,-1.488 -0.813,-0.248 -2.614,-0.021 -2.839,0.009 -0.108,-0.538 -0.208,-1.062 -0.294,-1.558 -0.047,-0.263 -0.087,-0.51 -0.127,-0.758 h -0.716 c 0.052,0.285 0.108,0.578 0.168,0.884 0.108,0.547 0.234,1.129 0.369,1.725 -0.136,0.054 -0.905,0.364 -1.585,0.745 -0.593,-0.642 -2.112,-1.393 -2.309,-1.489 0.207,-0.509 0.413,-1.001 0.615,-1.463 0.061,-0.139 0.119,-0.269 0.179,-0.402 h -0.755 c -0.018,0.045 -0.037,0.089 -0.056,0.136 -0.212,0.514 -0.429,1.07 -0.646,1.641 -0.218,-0.045 -2,-0.407 -2.831,-0.22 -0.754,0.17 -1.666,0.597 -2.004,1.342 -0.33,0.73 -0.034,1.629 0.757,1.895 1.098,0.369 2.773,-0.878 3.388,-1.711 0.036,-0.049 0.37,-0.625 0.574,-0.993 -0.087,0.234 -0.175,0.461 -0.262,0.703 -0.175,0.477 -0.336,0.96 -0.511,1.477 -0.075,0.253 -0.152,0.509 -0.229,0.767 -0.082,0.254 -0.136,0.533 -0.206,0.802 -0.15,0.628 -0.271,1.27 -0.378,1.92 -0.418,-0.153 -1.912,-0.672 -2.687,-0.618 -0.771,0.054 -1.737,0.337 -2.183,1.023 -0.438,0.671 -0.281,1.604 0.46,1.987 1.03,0.53 2.875,-0.448 3.608,-1.178 0.046,-0.044 0.514,-0.627 0.764,-0.953 -0.062,0.392 -0.125,0.782 -0.174,1.18 -0.143,1.148 -0.251,2.315 -0.365,3.479 -0.034,0.356 -0.074,0.711 -0.111,1.067 -0.148,-0.057 -1.911,-0.713 -2.778,-0.651 -0.77,0.053 -1.737,0.336 -2.184,1.022 -0.437,0.671 -0.281,1.605 0.461,1.987 1.03,0.531 2.875,-0.448 3.608,-1.177 0.055,-0.055 0.726,-0.895 0.887,-1.117 -0.082,0.783 -0.172,1.562 -0.292,2.327 -0.164,1.054 -0.382,2.08 -0.667,3.058 -0.07,-0.026 -1.907,-0.72 -2.795,-0.657 -0.771,0.055 -1.738,0.338 -2.184,1.022 -0.436,0.671 -0.281,1.606 0.461,1.988 1.029,0.531 2.875,-0.448 3.608,-1.177 0.058,-0.058 0.78,-0.961 0.899,-1.135 -0.018,0.059 -0.029,0.121 -0.047,0.179 -0.317,1.04 -0.756,2.009 -1.212,2.894 -0.263,0.516 -0.544,0.994 -0.827,1.453 -0.329,-0.165 -1.841,-0.898 -2.646,-0.93 -0.772,-0.031 -1.764,0.143 -2.283,0.776 -0.508,0.618 -0.455,1.564 0.239,2.026 0.966,0.64 2.908,-0.129 3.716,-0.775 0.045,-0.034 0.452,-0.44 0.745,-0.74 -0.131,0.205 -0.262,0.419 -0.392,0.613 -0.485,0.73 -0.973,1.368 -1.41,1.93 -0.252,0.317 -0.486,0.6 -0.706,0.861 -0.408,0.008 -2.046,0.058 -2.763,0.394 -0.699,0.329 -1.499,0.941 -1.668,1.741 -0.166,0.783 0.316,1.599 1.146,1.688 1.152,0.124 2.52,-1.455 2.941,-2.4 0.036,-0.082 0.459,-1.424 0.437,-1.424 h -0.024 c 0.218,-0.247 0.448,-0.514 0.694,-0.812 0.451,-0.554 0.955,-1.184 1.457,-1.905 0.504,-0.721 1.032,-1.517 1.511,-2.407 0.481,-0.89 0.943,-1.852 1.29,-2.904 0.004,-0.013 0.007,-0.025 0.011,-0.037 -0.006,0.339 0.009,1.289 0.018,1.361 0.133,1.026 0.993,2.93 2.132,3.141 0.82,0.151 1.516,-0.491 1.581,-1.289 0.067,-0.816 -0.524,-1.631 -1.1,-2.146 -0.65,-0.581 -2.453,-1.142 -2.598,-1.187 0.322,-1.005 0.57,-2.063 0.763,-3.147 0.11,-0.62 0.202,-1.247 0.287,-1.878 0.004,0.294 0.01,0.556 0.014,0.593 0.133,1.026 0.994,2.93 2.132,3.141 0.822,0.151 1.516,-0.492 1.581,-1.29 0.068,-0.815 -0.524,-1.63 -1.099,-2.145 -0.585,-0.522 -2.114,-1.033 -2.52,-1.162 0.03,-0.242 0.063,-0.484 0.091,-0.726 0.14,-1.163 0.273,-2.324 0.438,-3.458 0.059,-0.4 0.131,-0.792 0.202,-1.183 0.004,0.261 0.009,0.48 0.014,0.514 0.133,1.025 0.992,2.929 2.131,3.139 0.821,0.153 1.517,-0.491 1.582,-1.289 0.067,-0.814 -0.524,-1.631 -1.1,-2.145 -0.558,-0.498 -1.965,-0.982 -2.447,-1.138 0.084,-0.399 0.168,-0.8 0.269,-1.183 0.074,-0.26 0.127,-0.515 0.216,-0.773 0.083,-0.256 0.165,-0.51 0.246,-0.761 0.174,-0.478 0.35,-0.974 0.532,-1.435 0.124,-0.323 0.248,-0.628 0.371,-0.936 -0.062,0.398 -0.169,1.178 -0.17,1.244 -0.015,0.688 0.228,1.805 0.714,2.59 -0.003,0.102 0.003,0.202 0.019,0.303 0.127,0.791 0.87,1.378 1.676,1.163 1.12,-0.298 1.829,-2.263 1.882,-3.296 0.003,-0.061 -0.036,-0.726 -0.068,-1.146 0.056,0.245 0.107,0.481 0.169,0.731 0.117,0.495 0.249,0.986 0.388,1.515 0.077,0.252 0.155,0.507 0.232,0.765 0.072,0.258 0.181,0.521 0.27,0.783 0.222,0.606 0.476,1.208 0.746,1.81 -0.434,0.103 -1.967,0.494 -2.583,0.967 -0.613,0.47 -1.263,1.24 -1.257,2.057 0.006,0.801 0.65,1.495 1.48,1.404 1.152,-0.125 2.152,-1.959 2.361,-2.973 0.012,-0.062 0.081,-0.807 0.11,-1.216 0.165,0.361 0.327,0.721 0.506,1.079 0.514,1.037 1.067,2.071 1.615,3.104 0.168,0.316 0.331,0.634 0.496,0.95 -0.154,0.036 -1.987,0.461 -2.677,0.99 -0.613,0.47 -1.263,1.24 -1.257,2.058 0.005,0.801 0.651,1.493 1.481,1.403 1.151,-0.125 2.15,-1.96 2.359,-2.972 0.016,-0.077 0.113,-1.147 0.124,-1.42 0.363,0.698 0.718,1.397 1.04,2.1 0.446,0.97 0.828,1.946 1.13,2.92 -0.072,0.017 -1.986,0.451 -2.692,0.993 -0.613,0.471 -1.264,1.241 -1.258,2.058 0.006,0.801 0.651,1.494 1.481,1.403 1.152,-0.125 2.151,-1.96 2.36,-2.972 0.016,-0.08 0.119,-1.232 0.123,-1.441 0.018,0.058 0.043,0.115 0.06,0.173 0.309,1.044 0.477,2.093 0.586,3.084 0.065,0.575 0.094,1.128 0.111,1.667 -0.365,0.045 -2.031,0.267 -2.72,0.684 -0.661,0.4 -1.392,1.093 -1.476,1.907 -0.082,0.797 0.484,1.556 1.318,1.557 1.158,0.002 2.353,-1.712 2.673,-2.695 0.016,-0.054 0.132,-0.617 0.212,-1.028 0.003,0.243 0.011,0.494 0.01,0.727 -10e-4,0.876 -0.056,1.678 -0.111,2.388 -0.034,0.404 -0.073,0.768 -0.114,1.108 -0.335,0.231 -1.675,1.176 -2.087,1.852 -0.402,0.66 -0.731,1.612 -0.431,2.373 0.294,0.744 1.146,1.158 1.887,0.775 1.029,-0.532 1.3,-2.604 1.13,-3.624 -0.015,-0.088 -0.404,-1.44 -0.421,-1.428 0,0 -0.017,0.01 -0.021,0.013 0.046,-0.326 0.09,-0.677 0.131,-1.061 0.072,-0.71 0.145,-1.514 0.165,-2.393 C -2.155,5.694 -2.155,4.739 -2.246,3.732 -2.336,2.724 -2.481,1.667 -2.772,0.599 -2.775,0.586 -2.78,0.574 -2.784,0.562 -2.602,0.849 -2.065,1.632 -2.018,1.687 -1.34,2.47 0.427,3.583 1.493,3.13 2.262,2.804 2.486,1.885 2.101,1.183 1.707,0.466 0.764,0.111 0,0" /></g><g
           transform="translate(670.2794,69.1377)"
           id="g88"><path
             id="path90"
             style="fill:#1a2e35;fill-opacity:1;fill-rule:nonzero;stroke:none"
             d="M 0,0 C -0.018,-0.011 -0.37,1.352 -0.383,1.44 -0.524,2.465 -0.198,4.528 0.845,5.032 1.596,5.395 2.437,4.958 2.71,4.206 2.989,3.438 2.636,2.494 2.215,1.846 1.723,1.084 0.001,0.001 0,0" /></g></g></g><g
       id="g92"><g
         clip-path="url(#clipPath98)"
         id="g94"><g
           transform="translate(93.7199,372.2466)"
           id="g100"><path
             id="path102"
             style="fill:none;stroke:#1a2e35;stroke-width:1;stroke-linecap:round;stroke-linejoin:round;stroke-miterlimit:10;stroke-dasharray:none;stroke-opacity:1"
             d="m 0,0 c -3.309,-1.935 -4.557,-5.68 -5.156,-7.477 -0.828,-2.482 -3.724,1.656 -9.518,-0.414 -5.794,-2.068 -6.622,-6.621 -7.863,-7.862 -1.242,-1.242 -9.519,-4.553 -9.519,-4.553 h 83.053" /></g><g
           transform="translate(148.8546,351.9409)"
           id="g104"><path
             id="path106"
             style="fill:none;stroke:#1a2e35;stroke-width:1;stroke-linecap:round;stroke-linejoin:round;stroke-miterlimit:10;stroke-dasharray:none;stroke-opacity:1"
             d="m 0,0 h 10.062 c 0,0 1.655,9.104 -2.069,13.657 -3.724,4.552 -12.001,-2.07 -14.484,4.552 0,0 -7.449,10.76 -16.554,11.587 -9.104,0.829 -12.829,-6.207 -15.726,-9.932 -2.897,-3.724 -4.552,1.656 -11.587,1.656" /></g><g
           transform="translate(109.1071,359.332)"
           id="g108"><path
             id="path110"
             style="fill:none;stroke:#1a2e35;stroke-width:1;stroke-linecap:round;stroke-linejoin:round;stroke-miterlimit:10;stroke-dasharray:none;stroke-opacity:1"
             d="M 0,0 C -1.687,-1.571 -1.92,-3.667 -1.92,-3.667" /></g><g
           transform="translate(140.7077,366.4253)"
           id="g112"><path
             id="path114"
             style="fill:none;stroke:#1a2e35;stroke-width:1;stroke-linecap:round;stroke-linejoin:round;stroke-miterlimit:10;stroke-dasharray:none;stroke-opacity:1"
             d="m 0,0 c 0,0 -5.793,5.794 -12.415,5.38 -6.622,-0.414 -4.138,-8.277 -7.035,-10.76 -2.897,-2.483 -6.208,0.828 -9.932,-0.413" /></g><g
           transform="translate(318.6134,464.0088)"
           id="g116"><path
             id="path118"
             style="fill:none;stroke:#1a2e35;stroke-width:1;stroke-linecap:round;stroke-linejoin:round;stroke-miterlimit:10;stroke-dasharray:none;stroke-opacity:1"
             d="m 0,0 c -2.729,-1.595 -3.759,-4.685 -4.253,-6.166 -0.683,-2.048 -3.072,1.365 -7.85,-0.341 -4.779,-1.707 -5.461,-5.462 -6.485,-6.486 -1.024,-1.024 -7.85,-3.754 -7.85,-3.754 H 42.06" /></g><g
           transform="translate(364.0861,447.2617)"
           id="g120"><path
             id="path122"
             style="fill:none;stroke:#1a2e35;stroke-width:1;stroke-linecap:round;stroke-linejoin:round;stroke-miterlimit:10;stroke-dasharray:none;stroke-opacity:1"
             d="m 0,0 h 8.299 c 0,0 1.366,7.509 -1.707,11.264 -3.071,3.754 -9.898,-1.707 -11.946,3.754 0,0 -6.144,8.875 -13.652,9.557 -7.51,0.683 -10.581,-5.12 -12.971,-8.192 -2.389,-3.071 -3.754,1.366 -9.557,1.366" /></g><g
           transform="translate(331.3043,453.3574)"
           id="g124"><path
             id="path126"
             style="fill:none;stroke:#1a2e35;stroke-width:1;stroke-linecap:round;stroke-linejoin:round;stroke-miterlimit:10;stroke-dasharray:none;stroke-opacity:1"
             d="M 0,0 C -1.392,-1.296 -1.584,-3.024 -1.584,-3.024" /></g><g
           transform="translate(357.3673,459.208)"
           id="g128"><path
             id="path130"
             style="fill:none;stroke:#1a2e35;stroke-width:1;stroke-linecap:round;stroke-linejoin:round;stroke-miterlimit:10;stroke-dasharray:none;stroke-opacity:1"
             d="m 0,0 c 0,0 -4.779,4.778 -10.24,4.437 -5.461,-0.341 -3.413,-6.826 -5.802,-8.874 -2.39,-2.048 -5.12,0.683 -8.192,-0.342" /></g><g
           transform="translate(623.6915,370.9648)"
           id="g132"><path
             id="path134"
             style="fill:none;stroke:#1a2e35;stroke-width:1;stroke-linecap:round;stroke-linejoin:round;stroke-miterlimit:10;stroke-dasharray:none;stroke-opacity:1"
             d="m 0,0 c -2.729,-1.596 -3.759,-4.685 -4.253,-6.167 -0.683,-2.047 -3.071,1.366 -7.85,-0.341 -4.779,-1.706 -5.461,-5.461 -6.485,-6.485 -1.024,-1.024 -7.85,-3.755 -7.85,-3.755 H 42.06" /></g><g
           transform="translate(669.1652,354.2173)"
           id="g136"><path
             id="path138"
             style="fill:none;stroke:#1a2e35;stroke-width:1;stroke-linecap:round;stroke-linejoin:round;stroke-miterlimit:10;stroke-dasharray:none;stroke-opacity:1"
             d="m 0,0 h 8.299 c 0,0 1.365,7.509 -1.707,11.264 -3.072,3.754 -9.899,-1.707 -11.946,3.754 0,0 -6.144,8.875 -13.653,9.557 -7.51,0.683 -10.581,-5.12 -12.971,-8.192 -2.388,-3.071 -3.754,1.366 -9.556,1.366" /></g><g
           transform="translate(636.3829,360.313)"
           id="g140"><path
             id="path142"
             style="fill:none;stroke:#1a2e35;stroke-width:1;stroke-linecap:round;stroke-linejoin:round;stroke-miterlimit:10;stroke-dasharray:none;stroke-opacity:1"
             d="M 0,0 C -1.393,-1.296 -1.584,-3.024 -1.584,-3.024" /></g><g
           transform="translate(662.4454,366.1636)"
           id="g144"><path
             id="path146"
             style="fill:none;stroke:#1a2e35;stroke-width:1;stroke-linecap:round;stroke-linejoin:round;stroke-miterlimit:10;stroke-dasharray:none;stroke-opacity:1"
             d="m 0,0 c 0,0 -4.778,4.778 -10.239,4.437 -5.462,-0.341 -3.413,-6.826 -5.803,-8.874 -2.39,-2.048 -5.12,0.682 -8.191,-0.342" /></g></g></g><g
       transform="translate(532.132,297.7847)"
       id="g148"><path
         id="path150"
         style="fill:#1a2e35;fill-opacity:1;fill-rule:nonzero;stroke:none"
         d="m 0,0 30.441,13.411 -40.646,92.264 z M 66.716,-68.929 44.384,-18.238 -16.009,-44.843 -30.306,-12.39 -37.585,144.535 6.606,164.003 66.04,29.094 85.188,37.53 99.132,5.881 79.982,-2.555 102.314,-53.247 Z" /></g><g
       transform="translate(532.132,297.7847)"
       id="g152"><path
         id="path154"
         style="fill:none;stroke:#1a2e35;stroke-width:1;stroke-linecap:butt;stroke-linejoin:miter;stroke-miterlimit:10;stroke-dasharray:none;stroke-opacity:1"
         d="m 0,0 30.441,13.411 -40.646,92.264 z M 66.716,-68.929 44.384,-18.238 -16.009,-44.843 -30.306,-12.39 -37.585,144.535 6.606,164.003 66.04,29.094 85.188,37.53 99.132,5.881 79.982,-2.555 102.314,-53.247 Z" /></g><g
       transform="translate(527.2823,295.5806)"
       id="g156"><path
         id="path158"
         style="fill:#5ae4a7;fill-opacity:1;fill-rule:nonzero;stroke:none"
         d="m 0,0 30.441,13.411 -40.646,92.264 z M 66.716,-68.929 44.384,-18.238 -16.008,-44.843 -30.306,-12.39 -37.584,144.535 6.606,164.003 66.04,29.094 85.189,37.53 99.132,5.881 79.982,-2.555 102.314,-53.247 Z" /></g><g
       transform="translate(527.2823,295.5806)"
       id="g160"><path
         id="path162"
         style="fill:none;stroke:#1a2e35;stroke-width:1;stroke-linecap:butt;stroke-linejoin:miter;stroke-miterlimit:10;stroke-dasharray:none;stroke-opacity:1"
         d="m 0,0 30.441,13.411 -40.646,92.264 z M 66.716,-68.929 44.384,-18.238 -16.008,-44.843 -30.306,-12.39 -37.584,144.535 6.606,164.003 66.04,29.094 85.189,37.53 99.132,5.881 79.982,-2.555 102.314,-53.247 Z" /></g><g
       id="g164"><g
         clip-path="url(#clipPath170)"
         id="g166"><g
           transform="translate(401.9513,223.9023)"
           id="g172"><path
             id="path174"
             style="fill:#1a2e35;fill-opacity:1;fill-rule:nonzero;stroke:none"
             d="m 0,0 c 4.749,0.875 7.878,3.137 9.387,6.795 1.509,3.654 2.198,7.805 2.071,12.451 -0.13,4.642 -0.546,8.886 -1.254,12.733 L -8.75,134.878 c -0.778,4.225 -1.902,8.59 -3.366,13.089 -1.468,4.498 -3.562,8.233 -6.293,11.208 -2.729,2.971 -6.56,4.008 -11.482,3.101 -4.926,-0.908 -8.178,-3.248 -9.756,-7.013 -1.582,-3.769 -2.254,-8.014 -2.019,-12.739 0.232,-4.726 0.742,-9.204 1.52,-13.429 L -21.192,26.196 c 0.708,-3.846 1.829,-7.962 3.364,-12.344 1.534,-4.388 3.746,-8.003 6.636,-10.848 C -8.306,0.156 -4.576,-0.843 0,0 m 7.22,-39.2 c -12.841,-2.365 -24.012,-1.443 -33.516,2.767 -9.504,4.209 -17.296,10.969 -23.376,20.281 -6.08,9.31 -10.34,20.594 -12.783,33.853 L -81.727,122.33 c -2.513,13.642 -2.696,25.976 -0.542,37.003 2.151,11.022 6.918,20.198 14.299,27.518 7.38,7.32 17.666,12.194 30.858,14.624 13.015,2.398 24.231,1.483 33.649,-2.742 9.413,-4.227 17.092,-11.109 23.033,-20.641 5.938,-9.537 10.165,-21.126 12.678,-34.768 L 51.521,38.695 C 53.963,25.437 54.003,13.374 51.64,2.509 49.276,-8.357 44.404,-17.45 37.023,-24.77 29.643,-32.089 19.707,-36.899 7.22,-39.2" /></g><g
           transform="translate(401.9513,223.9023)"
           id="g176"><path
             id="path178"
             style="fill:none;stroke:#1a2e35;stroke-width:1;stroke-linecap:butt;stroke-linejoin:miter;stroke-miterlimit:10;stroke-dasharray:none;stroke-opacity:1"
             d="m 0,0 c 4.749,0.875 7.878,3.137 9.387,6.795 1.509,3.654 2.198,7.805 2.071,12.451 -0.13,4.642 -0.546,8.886 -1.254,12.733 L -8.75,134.878 c -0.778,4.225 -1.902,8.59 -3.366,13.089 -1.468,4.498 -3.562,8.233 -6.293,11.208 -2.729,2.971 -6.56,4.008 -11.482,3.101 -4.926,-0.908 -8.178,-3.248 -9.756,-7.013 -1.582,-3.769 -2.254,-8.014 -2.019,-12.739 0.232,-4.726 0.742,-9.204 1.52,-13.429 L -21.192,26.196 c 0.708,-3.846 1.829,-7.962 3.364,-12.344 1.534,-4.388 3.746,-8.003 6.636,-10.848 C -8.306,0.156 -4.576,-0.843 0,0 Z m 7.22,-39.2 c -12.841,-2.365 -24.012,-1.443 -33.516,2.767 -9.504,4.209 -17.296,10.969 -23.376,20.281 -6.08,9.31 -10.34,20.594 -12.783,33.853 L -81.727,122.33 c -2.513,13.642 -2.696,25.976 -0.542,37.003 2.151,11.022 6.918,20.198 14.299,27.518 7.38,7.32 17.666,12.194 30.858,14.624 13.015,2.398 24.231,1.483 33.649,-2.742 9.413,-4.227 17.092,-11.109 23.033,-20.641 5.938,-9.537 10.165,-21.126 12.678,-34.768 L 51.521,38.695 C 53.963,25.437 54.003,13.374 51.64,2.509 49.276,-8.357 44.404,-17.45 37.023,-24.77 29.643,-32.089 19.707,-36.899 7.22,-39.2 Z" /></g><g
           transform="translate(396.2203,222.5801)"
           id="g180"><path
             id="path182"
             style="fill:#5ae4a7;fill-opacity:1;fill-rule:nonzero;stroke:none"
             d="m 0,0 c 4.749,0.874 7.878,3.137 9.387,6.795 1.509,3.653 2.198,7.804 2.071,12.451 -0.13,4.642 -0.545,8.886 -1.254,12.733 L -8.75,134.878 c -0.778,4.225 -1.902,8.59 -3.366,13.089 -1.468,4.498 -3.562,8.233 -6.293,11.208 -2.729,2.971 -6.56,4.007 -11.482,3.1 -4.926,-0.907 -8.178,-3.248 -9.756,-7.012 -1.582,-3.769 -2.254,-8.014 -2.019,-12.739 0.232,-4.726 0.742,-9.204 1.52,-13.429 l 18.954,-102.9 c 0.709,-3.845 1.829,-7.961 3.364,-12.343 1.534,-4.388 3.746,-8.004 6.636,-10.848 C -8.306,0.155 -4.576,-0.844 0,0 m 7.22,-39.2 c -12.841,-2.365 -24.012,-1.443 -33.516,2.766 -9.504,4.21 -17.296,10.97 -23.376,20.282 -6.079,9.309 -10.34,20.594 -12.783,33.853 L -81.727,122.33 c -2.513,13.641 -2.696,25.975 -0.542,37.003 2.151,11.022 6.918,20.198 14.299,27.518 7.38,7.319 17.667,12.194 30.858,14.624 13.015,2.397 24.231,1.483 33.649,-2.743 9.413,-4.226 17.092,-11.109 23.033,-20.641 5.938,-9.537 10.165,-21.126 12.679,-34.767 L 51.521,38.695 C 53.963,25.437 54.002,13.374 51.639,2.509 49.277,-8.357 44.405,-17.45 37.024,-24.77 29.643,-32.089 19.707,-36.899 7.22,-39.2" /></g><g
           transform="translate(396.2203,222.5801)"
           id="g184"><path
             id="path186"
             style="fill:none;stroke:#1a2e35;stroke-width:1;stroke-linecap:butt;stroke-linejoin:miter;stroke-miterlimit:10;stroke-dasharray:none;stroke-opacity:1"
             d="m 0,0 c 4.749,0.874 7.878,3.137 9.387,6.795 1.509,3.653 2.198,7.804 2.071,12.451 -0.13,4.642 -0.545,8.886 -1.254,12.733 L -8.75,134.878 c -0.778,4.225 -1.902,8.59 -3.366,13.089 -1.468,4.498 -3.562,8.233 -6.293,11.208 -2.729,2.971 -6.56,4.007 -11.482,3.1 -4.926,-0.907 -8.178,-3.248 -9.756,-7.012 -1.582,-3.769 -2.254,-8.014 -2.019,-12.739 0.232,-4.726 0.742,-9.204 1.52,-13.429 l 18.954,-102.9 c 0.709,-3.845 1.829,-7.961 3.364,-12.343 1.534,-4.388 3.746,-8.004 6.636,-10.848 C -8.306,0.155 -4.576,-0.844 0,0 Z m 7.22,-39.2 c -12.841,-2.365 -24.012,-1.443 -33.516,2.766 -9.504,4.21 -17.296,10.97 -23.376,20.282 -6.079,9.309 -10.34,20.594 -12.783,33.853 L -81.727,122.33 c -2.513,13.641 -2.696,25.975 -0.542,37.003 2.151,11.022 6.918,20.198 14.299,27.518 7.38,7.319 17.667,12.194 30.858,14.624 13.015,2.397 24.231,1.483 33.649,-2.743 9.413,-4.226 17.092,-11.109 23.033,-20.641 5.938,-9.537 10.165,-21.126 12.679,-34.767 L 51.521,38.695 C 53.963,25.437 54.002,13.374 51.639,2.509 49.277,-8.357 44.405,-17.45 37.024,-24.77 29.643,-32.089 19.707,-36.899 7.22,-39.2 Z" /></g></g></g><g
       transform="translate(167.9591,305.6108)"
       id="g188"><path
         id="path190"
         style="fill:#1a2e35;fill-opacity:1;fill-rule:nonzero;stroke:none"
         d="m 0,0 32.376,-7.642 23.16,98.124 z m 11.707,-95.212 12.725,53.911 -64.23,15.16 8.146,34.515 88.754,129.62 46.997,-11.093 L 70.235,-16.578 90.6,-21.384 82.656,-55.043 62.29,-50.236 49.566,-104.148 Z" /></g><g
       transform="translate(167.9591,305.6108)"
       id="g192"><path
         id="path194"
         style="fill:none;stroke:#1a2e35;stroke-width:1;stroke-linecap:butt;stroke-linejoin:miter;stroke-miterlimit:10;stroke-dasharray:none;stroke-opacity:1"
         d="m 0,0 32.376,-7.642 23.16,98.124 z m 11.707,-95.212 12.725,53.911 -64.23,15.16 8.146,34.515 88.754,129.62 46.997,-11.093 L 70.235,-16.578 90.6,-21.384 82.656,-55.043 62.29,-50.236 49.566,-104.148 Z" /></g><g
       transform="translate(162.7843,306.7529)"
       id="g196"><path
         id="path198"
         style="fill:#5ae4a7;fill-opacity:1;fill-rule:nonzero;stroke:none"
         d="m 0,0 32.376,-7.642 23.16,98.125 z m 11.708,-95.212 12.724,53.912 -64.23,15.159 8.146,34.515 88.755,129.62 46.997,-11.093 -33.865,-143.478 20.366,-4.807 -7.945,-33.658 -20.365,4.806 -12.725,-53.911 z" /></g><g
       transform="translate(162.7843,306.7529)"
       id="g200"><path
         id="path202"
         style="fill:none;stroke:#1a2e35;stroke-width:1;stroke-linecap:butt;stroke-linejoin:miter;stroke-miterlimit:10;stroke-dasharray:none;stroke-opacity:1"
         d="m 0,0 32.376,-7.642 23.16,98.125 z m 11.708,-95.212 12.724,53.912 -64.23,15.159 8.146,34.515 88.755,129.62 46.997,-11.093 -33.865,-143.478 20.366,-4.807 -7.945,-33.658 -20.365,4.806 -12.725,-53.911 z" /></g><g
       id="g204"><g
         clip-path="url(#clipPath210)"
         id="g206"><g
           transform="translate(534.59,200.9961)"
           id="g212"><path
             id="path214"
             style="fill:#1a2e35;fill-opacity:1;fill-rule:nonzero;stroke:none"
             d="m 0,0 c 0,0 -3.558,-23.79 -2.224,-31.794 1.334,-8.004 19.121,-43.578 19.121,-43.578 v -4.892 l -13.562,-6.67 4.002,-9.116 5.559,1.334 -5.336,-25.347 11.561,-2.445 14.897,32.461 c 0,0 25.791,8.005 26.235,10.006 0.445,2.001 -4.224,32.905 -4.224,32.905 0,0 -5.781,28.015 -9.56,37.354 C 42.688,-0.444 38.02,8.005 38.02,8.005 Z" /></g><g
           transform="translate(534.59,200.9961)"
           id="g216"><path
             id="path218"
             style="fill:none;stroke:#1a2e35;stroke-width:1;stroke-linecap:butt;stroke-linejoin:miter;stroke-miterlimit:10;stroke-dasharray:none;stroke-opacity:1"
             d="m 0,0 c 0,0 -3.558,-23.79 -2.224,-31.794 1.334,-8.004 19.121,-43.578 19.121,-43.578 v -4.892 l -13.562,-6.67 4.002,-9.116 5.559,1.334 -5.336,-25.347 11.561,-2.445 14.897,32.461 c 0,0 25.791,8.005 26.235,10.006 0.445,2.001 -4.224,32.905 -4.224,32.905 0,0 -5.781,28.015 -9.56,37.354 C 42.688,-0.444 38.02,8.005 38.02,8.005 Z" /></g><g
           transform="translate(547.9298,166.9785)"
           id="g220"><path
             id="path222"
             style="fill:none;stroke:#ffffff;stroke-width:1;stroke-linecap:butt;stroke-linejoin:miter;stroke-miterlimit:10;stroke-dasharray:none;stroke-opacity:1"
             d="M 0,0 8.894,-2.668 22.679,-38.242 5.781,-46.023" /></g><g
           transform="translate(566.1613,109.8379)"
           id="g224"><path
             id="path226"
             style="fill:none;stroke:#ffffff;stroke-width:1;stroke-linecap:butt;stroke-linejoin:miter;stroke-miterlimit:10;stroke-dasharray:none;stroke-opacity:1"
             d="M 0,0 -15.341,-3.112" /></g><g
           transform="translate(521.8292,259.416)"
           id="g228"><path
             id="path230"
             style="fill:#ffffff;fill-opacity:1;fill-rule:nonzero;stroke:none"
             d="m 0,0 -12.42,-9.69 -2.945,6.007 -8.285,-4.656 c 0,0 -0.31,-26.251 1.913,-27.306 2.222,-1.055 29.47,14.946 29.47,14.946 0,0 1.82,-28.888 1.366,-33.21 -0.455,-4.321 2.502,-6.369 4.548,-6.142 2.047,0.228 40.716,5.232 41.626,6.369 0.911,1.138 1.821,4.095 1.366,5.914 -0.455,1.82 -8.871,33.438 -8.871,33.438 0,0 22.973,-3.64 23.883,-1.593 0.91,2.048 7.734,21.61 7.734,21.61 L 67.784,8.417 63.462,1.82 c 0,0 -24.793,10.236 -32.755,10.236 C 22.746,12.056 2.502,1.82 0,0" /></g><g
           transform="translate(521.8292,259.416)"
           id="g232"><path
             id="path234"
             style="fill:none;stroke:#1a2e35;stroke-width:1;stroke-linecap:butt;stroke-linejoin:miter;stroke-miterlimit:10;stroke-dasharray:none;stroke-opacity:1"
             d="m 0,0 -12.42,-9.69 -2.945,6.007 -8.285,-4.656 c 0,0 -0.31,-26.251 1.913,-27.306 2.222,-1.055 29.47,14.946 29.47,14.946 0,0 1.82,-28.888 1.366,-33.21 -0.455,-4.321 2.502,-6.369 4.548,-6.142 2.047,0.228 40.716,5.232 41.626,6.369 0.911,1.138 1.821,4.095 1.366,5.914 -0.455,1.82 -8.871,33.438 -8.871,33.438 0,0 22.973,-3.64 23.883,-1.593 0.91,2.048 7.734,21.61 7.734,21.61 L 67.784,8.417 63.462,1.82 c 0,0 -24.793,10.236 -32.755,10.236 C 22.746,12.056 2.502,1.82 0,0 Z" /></g><g
           transform="translate(585.2911,261.2358)"
           id="g236"><path
             id="path238"
             style="fill:none;stroke:#1a2e35;stroke-width:1;stroke-linecap:butt;stroke-linejoin:miter;stroke-miterlimit:10;stroke-dasharray:none;stroke-opacity:1"
             d="M 0,0 5.858,-2.373" /></g><g
           transform="translate(555.4298,247.0391)"
           id="g240"><path
             id="path242"
             style="fill:none;stroke:#1a2e35;stroke-width:1;stroke-linecap:butt;stroke-linejoin:miter;stroke-miterlimit:10;stroke-dasharray:none;stroke-opacity:1"
             d="M 0,0 14.167,-1.953 -1.345,-4.277" /></g><g
           transform="translate(502.2365,241.5713)"
           id="g244"><path
             id="path246"
             style="fill:none;stroke:#1a2e35;stroke-width:1;stroke-linecap:butt;stroke-linejoin:miter;stroke-miterlimit:10;stroke-dasharray:none;stroke-opacity:1"
             d="M 0,0 -1.882,-2.14" /></g><g
           transform="translate(509.4093,249.7261)"
           id="g248"><path
             id="path250"
             style="fill:none;stroke:#1a2e35;stroke-width:1;stroke-linecap:butt;stroke-linejoin:miter;stroke-miterlimit:10;stroke-dasharray:none;stroke-opacity:1"
             d="M 0,0 -5.266,-5.986" /></g><g
           transform="translate(563.4249,233.5859)"
           id="g252"><path
             id="path254"
             style="fill:none;stroke:#1a2e35;stroke-width:1;stroke-linecap:butt;stroke-linejoin:miter;stroke-miterlimit:10;stroke-dasharray:none;stroke-opacity:1"
             d="M 0,0 C -4.94,-6.994 -15.127,-20.768 -21.684,-25.168" /></g><g
           transform="translate(566.3077,237.75)"
           id="g256"><path
             id="path258"
             style="fill:none;stroke:#1a2e35;stroke-width:1;stroke-linecap:butt;stroke-linejoin:miter;stroke-miterlimit:10;stroke-dasharray:none;stroke-opacity:1"
             d="M 0,0 C 0,0 -0.52,-0.774 -1.423,-2.078" /></g><g
           transform="translate(541.8517,211.748)"
           id="g260"><path
             id="path262"
             style="fill:none;stroke:#1a2e35;stroke-width:1;stroke-linecap:butt;stroke-linejoin:miter;stroke-miterlimit:10;stroke-dasharray:none;stroke-opacity:1"
             d="M 0,0 C -1.478,-1.535 -2.922,-2.902 -4.144,-3.819" /></g><g
           transform="translate(551.0304,222.4727)"
           id="g264"><path
             id="path266"
             style="fill:none;stroke:#1a2e35;stroke-width:1;stroke-linecap:butt;stroke-linejoin:miter;stroke-miterlimit:10;stroke-dasharray:none;stroke-opacity:1"
             d="M 0,0 C 0,0 -3.837,-4.949 -7.835,-9.296" /></g><g
           transform="translate(498.1788,251.0767)"
           id="g268"><path
             id="path270"
             style="fill:#ffffff;fill-opacity:1;fill-rule:nonzero;stroke:none"
             d="m 0,0 -1.103,24.895 c 0,0 -4.464,8.544 -4.563,9.219 -0.098,0.676 1.679,8.98 2.157,10.429 0.479,1.449 2.992,-0.023 4.286,-2.593 1.294,-2.57 0.661,-6.11 0.661,-6.11 0,0 2.941,-4.399 3.461,-6.391 C 5.42,27.456 4.463,24.558 4.463,24.558 L 8.285,4.657 Z" /></g><g
           transform="translate(498.1788,251.0767)"
           id="g272"><path
             id="path274"
             style="fill:none;stroke:#1a2e35;stroke-width:1;stroke-linecap:butt;stroke-linejoin:miter;stroke-miterlimit:10;stroke-dasharray:none;stroke-opacity:1"
             d="m 0,0 -1.103,24.895 c 0,0 -4.464,8.544 -4.563,9.219 -0.098,0.676 1.679,8.98 2.157,10.429 0.479,1.449 2.992,-0.023 4.286,-2.593 1.294,-2.57 0.661,-6.11 0.661,-6.11 0,0 2.941,-4.399 3.461,-6.391 C 5.42,27.456 4.463,24.558 4.463,24.558 L 8.285,4.657 Z" /></g><g
           transform="translate(496.7892,295.7671)"
           id="g276"><path
             id="path278"
             style="fill:none;stroke:#1a2e35;stroke-width:1;stroke-linecap:butt;stroke-linejoin:miter;stroke-miterlimit:10;stroke-dasharray:none;stroke-opacity:1"
             d="m 0,0 c 0,0 -1.452,-0.319 -1.148,-1.666 0.303,-1.347 1.727,-6.705 1.521,-8.233" /></g><g
           transform="translate(589.6134,268.9028)"
           id="g280"><path
             id="path282"
             style="fill:#ffffff;fill-opacity:1;fill-rule:nonzero;stroke:none"
             d="m 0,0 c 0,0 17.263,29.336 18.852,30.184 1.588,0.847 13.662,0.529 13.662,0.529 0,0 4.66,6.46 5.295,5.719 l 0.635,-0.741 c 0,0 1.695,0.953 2.225,0.423 l 0.529,-0.529 c 0,0 1.165,0.953 1.8,0.635 0.636,-0.318 0.636,-1.27 0.636,-1.27 0,0 1.271,0.741 0.953,-0.636 C 44.27,32.937 40.351,26.159 38.762,25.206 37.174,24.253 20.97,24.253 20.97,24.253 L 12.18,-1.801 Z" /></g><g
           transform="translate(589.6134,268.9028)"
           id="g284"><path
             id="path286"
             style="fill:none;stroke:#1a2e35;stroke-width:1;stroke-linecap:butt;stroke-linejoin:miter;stroke-miterlimit:10;stroke-dasharray:none;stroke-opacity:1"
             d="m 0,0 c 0,0 17.263,29.336 18.852,30.184 1.588,0.847 13.662,0.529 13.662,0.529 0,0 4.66,6.46 5.295,5.719 l 0.635,-0.741 c 0,0 1.695,0.953 2.225,0.423 l 0.529,-0.529 c 0,0 1.165,0.953 1.8,0.635 0.636,-0.318 0.636,-1.27 0.636,-1.27 0,0 1.271,0.741 0.953,-0.636 C 44.27,32.937 40.351,26.159 38.762,25.206 37.174,24.253 20.97,24.253 20.97,24.253 L 12.18,-1.801 Z" /></g><g
           transform="translate(628.0577,304.5937)"
           id="g288"><path
             id="path290"
             style="fill:none;stroke:#1a2e35;stroke-width:1;stroke-linecap:butt;stroke-linejoin:miter;stroke-miterlimit:10;stroke-dasharray:none;stroke-opacity:1"
             d="M 0,0 C 0,0 -4.024,-7.52 -4.872,-8.261" /></g><g
           transform="translate(630.8116,304.4878)"
           id="g292"><path
             id="path294"
             style="fill:none;stroke:#1a2e35;stroke-width:1;stroke-linecap:butt;stroke-linejoin:miter;stroke-miterlimit:10;stroke-dasharray:none;stroke-opacity:1"
             d="M 0,0 -4.978,-9.108" /></g><g
           transform="translate(633.2472,303.8525)"
           id="g296"><path
             id="path298"
             style="fill:none;stroke:#1a2e35;stroke-width:1;stroke-linecap:butt;stroke-linejoin:miter;stroke-miterlimit:10;stroke-dasharray:none;stroke-opacity:1"
             d="M 0,0 -4.766,-8.049" /></g><g
           transform="translate(495.2472,252.2583)"
           id="g300"><path
             id="path302"
             style="fill:#ffffff;fill-opacity:1;fill-rule:nonzero;stroke:none"
             d="M 0,0 2.435,-7.231 14.954,1.491 11.943,7.948 Z" /></g><g
           transform="translate(495.2472,252.2583)"
           id="g304"><path
             id="path306"
             style="fill:none;stroke:#1a2e35;stroke-width:1;stroke-linecap:butt;stroke-linejoin:miter;stroke-miterlimit:10;stroke-dasharray:none;stroke-opacity:1"
             d="M 0,0 2.435,-7.231 14.954,1.491 11.943,7.948 Z" /></g><g
           transform="translate(570.2784,297.8579)"
           id="g308"><path
             id="path310"
             style="fill:#ffffff;fill-opacity:1;fill-rule:nonzero;stroke:none"
             d="m 0,0 c 0,0 0,-4.549 -1.137,-8.189 -1.137,-3.64 2.047,-6.824 1.137,-7.961 -0.909,-1.138 -3.866,-2.73 -3.866,-2.73 0,0 -1.365,-6.141 -3.64,-7.051 -2.274,-0.91 -8.643,1.82 -8.643,1.82 0,0 -5.687,7.278 -1.821,13.648 C -14.103,-4.095 0,0 0,0" /></g><g
           transform="translate(570.2784,297.8579)"
           id="g312"><path
             id="path314"
             style="fill:none;stroke:#1a2e35;stroke-width:1;stroke-linecap:butt;stroke-linejoin:miter;stroke-miterlimit:10;stroke-dasharray:none;stroke-opacity:1"
             d="m 0,0 c 0,0 0,-4.549 -1.137,-8.189 -1.137,-3.64 2.047,-6.824 1.137,-7.961 -0.909,-1.138 -3.866,-2.73 -3.866,-2.73 0,0 -1.365,-6.141 -3.64,-7.051 -2.274,-0.91 -8.643,1.82 -8.643,1.82 0,0 -5.687,7.278 -1.821,13.648 C -14.103,-4.095 0,0 0,0 Z" /></g><g
           transform="translate(566.1818,286.5791)"
           id="g316"><path
             id="path318"
             style="fill:#1a2e35;fill-opacity:1;fill-rule:nonzero;stroke:none"
             d="m 0,0 c -0.271,-0.845 -0.77,-1.44 -1.115,-1.33 -0.346,0.111 -0.407,0.885 -0.137,1.73 0.27,0.845 0.769,1.44 1.114,1.33 C 0.208,1.62 0.27,0.845 0,0" /></g><g
           transform="translate(564.2784,290.8711)"
           id="g320"><path
             id="path322"
             style="fill:none;stroke:#1a2e35;stroke-width:1;stroke-linecap:butt;stroke-linejoin:miter;stroke-miterlimit:10;stroke-dasharray:none;stroke-opacity:1"
             d="M 0,0 C 0,0 1.326,1.89 3.302,0.751" /></g><g
           transform="translate(560.9562,281.5229)"
           id="g324"><path
             id="path326"
             style="fill:none;stroke:#1a2e35;stroke-width:1;stroke-linecap:butt;stroke-linejoin:miter;stroke-miterlimit:10;stroke-dasharray:none;stroke-opacity:1"
             d="M 0,0 C 0,0 0.73,-2.628 3.942,-2.92" /></g><g
           transform="translate(575.0558,308.5488)"
           id="g328"><path
             id="path330"
             style="fill:#1a2e35;fill-opacity:1;fill-rule:nonzero;stroke:none"
             d="m 0,0 c 0,0 2.502,-5.915 -0.455,-9.781 -2.957,-3.867 -10.463,-4.094 -15.013,-10.009 -4.549,-5.914 -2.729,-13.648 -1.592,-16.15 1.137,-2.502 -0.682,-12.055 -3.867,-13.42 -3.184,-1.365 -8.416,-2.275 -7.052,-5.459 1.366,-3.185 2.958,-8.644 1.593,-11.373 -1.365,-2.73 -10.009,-7.507 -16.833,-5.004 -6.823,2.502 -6.595,7.506 -4.776,10.918 1.819,3.411 -1.819,1.82 -5.687,7.278 -3.867,5.459 -8.643,15.013 -2.502,19.79 6.142,4.776 10.918,6.369 11.373,10.918 0.456,4.549 -1.884,15.355 4.03,19.904 5.914,4.549 9.26,3.472 9.26,3.472 0,0 5.59,6.195 11.732,6.195 6.141,0 8.643,-3.867 8.643,-3.867 0,0 7.734,6.141 11.146,-3.412" /></g><g
           transform="translate(575.0558,308.5488)"
           id="g332"><path
             id="path334"
             style="fill:none;stroke:#1a2e35;stroke-width:1;stroke-linecap:butt;stroke-linejoin:miter;stroke-miterlimit:10;stroke-dasharray:none;stroke-opacity:1"
             d="m 0,0 c 0,0 2.502,-5.915 -0.455,-9.781 -2.957,-3.867 -10.463,-4.094 -15.013,-10.009 -4.549,-5.914 -2.729,-13.648 -1.592,-16.15 1.137,-2.502 -0.682,-12.055 -3.867,-13.42 -3.184,-1.365 -8.416,-2.275 -7.052,-5.459 1.366,-3.185 2.958,-8.644 1.593,-11.373 -1.365,-2.73 -10.009,-7.507 -16.833,-5.004 -6.823,2.502 -6.595,7.506 -4.776,10.918 1.819,3.411 -1.819,1.82 -5.687,7.278 -3.867,5.459 -8.643,15.013 -2.502,19.79 6.142,4.776 10.918,6.369 11.373,10.918 0.456,4.549 -1.884,15.355 4.03,19.904 5.914,4.549 9.26,3.472 9.26,3.472 0,0 5.59,6.195 11.732,6.195 6.141,0 8.643,-3.867 8.643,-3.867 0,0 7.734,6.141 11.146,-3.412 z" /></g><g
           transform="translate(588.7032,271.4717)"
           id="g336"><path
             id="path338"
             style="fill:#ffffff;fill-opacity:1;fill-rule:nonzero;stroke:none"
             d="m 0,0 -2.047,-5.231 14.785,-5.232 2.047,8.189 z" /></g><g
           transform="translate(588.7032,271.4717)"
           id="g340"><path
             id="path342"
             style="fill:none;stroke:#1a2e35;stroke-width:1;stroke-linecap:butt;stroke-linejoin:miter;stroke-miterlimit:10;stroke-dasharray:none;stroke-opacity:1"
             d="m 0,0 -2.047,-5.231 14.785,-5.232 2.047,8.189 z" /></g><g
           transform="translate(537.9249,114.0625)"
           id="g344"><path
             id="path346"
             style="fill:#ffffff;fill-opacity:1;fill-rule:nonzero;stroke:none"
             d="m 0,0 c 0,0 -29.23,-10.252 -28.878,-12.367 0.353,-2.114 7.226,-20.618 10.045,-23.614 2.819,-2.996 4.053,-4.758 4.582,-2.291 0.528,2.467 -0.177,5.462 -0.177,6.697 0,1.233 1.41,15.331 1.939,16.036 0.529,0.705 16.491,6.423 16.491,6.423 z" /></g><g
           transform="translate(537.9249,114.0625)"
           id="g348"><path
             id="path350"
             style="fill:none;stroke:#1a2e35;stroke-width:1;stroke-linecap:butt;stroke-linejoin:miter;stroke-miterlimit:10;stroke-dasharray:none;stroke-opacity:1"
             d="m 0,0 c 0,0 -29.23,-10.252 -28.878,-12.367 0.353,-2.114 7.226,-20.618 10.045,-23.614 2.819,-2.996 4.053,-4.758 4.582,-2.291 0.528,2.467 -0.177,5.462 -0.177,6.697 0,1.233 1.41,15.331 1.939,16.036 0.529,0.705 16.491,6.423 16.491,6.423 z" /></g><g
           transform="translate(520.6779,97.1133)"
           id="g352"><path
             id="path354"
             style="fill:#ffffff;fill-opacity:1;fill-rule:nonzero;stroke:none"
             d="m 0,0 -3.28,9.159 c -4.782,-2.007 -8.477,-3.817 -8.351,-4.577 0.353,-2.114 7.226,-20.618 10.045,-23.614 2.819,-2.995 4.053,-4.758 4.582,-2.291 0.528,2.468 -0.177,5.464 -0.177,6.697 0,1.233 1.41,15.331 1.939,16.036 z" /></g><g
           transform="translate(520.6779,97.1133)"
           id="g356"><path
             id="path358"
             style="fill:none;stroke:#1a2e35;stroke-width:1;stroke-linecap:butt;stroke-linejoin:miter;stroke-miterlimit:10;stroke-dasharray:none;stroke-opacity:1"
             d="m 0,0 -3.28,9.159 c -4.782,-2.007 -8.477,-3.817 -8.351,-4.577 0.353,-2.114 7.226,-20.618 10.045,-23.614 2.819,-2.995 4.053,-4.758 4.582,-2.291 0.528,2.468 -0.177,5.464 -0.177,6.697 0,1.233 1.41,15.331 1.939,16.036 z" /></g><g
           transform="translate(542.1495,80.9336)"
           id="g360"><path
             id="path362"
             style="fill:#ffffff;fill-opacity:1;fill-rule:nonzero;stroke:none"
             d="m 0,0 c 0,0 -8.354,-28.771 -8.079,-30.343 0.275,-1.572 8.226,-4.046 11.283,-4.913 3.056,-0.867 10.806,-0.557 12.872,0.279 2.067,0.836 3.373,2.508 1.746,3.112 -1.627,0.604 -6.112,1.735 -6.112,1.735 l -6.544,8.594 6.396,19.091 z" /></g><g
           transform="translate(542.1495,80.9336)"
           id="g364"><path
             id="path366"
             style="fill:none;stroke:#1a2e35;stroke-width:1;stroke-linecap:butt;stroke-linejoin:miter;stroke-miterlimit:10;stroke-dasharray:none;stroke-opacity:1"
             d="m 0,0 c 0,0 -8.354,-28.771 -8.079,-30.343 0.275,-1.572 8.226,-4.046 11.283,-4.913 3.056,-0.867 10.806,-0.557 12.872,0.279 2.067,0.836 3.373,2.508 1.746,3.112 -1.627,0.604 -6.112,1.735 -6.112,1.735 l -6.544,8.594 6.396,19.091 z" /></g><g
           transform="translate(559.9718,49.0684)"
           id="g368"><path
             id="path370"
             style="fill:#ffffff;fill-opacity:1;fill-rule:nonzero;stroke:none"
             d="m 0,0 c -1.627,0.604 -6.112,1.735 -6.112,1.735 l -6.544,8.594 -1.516,-3.98 -9.956,3.177 c -1.077,-4.538 -1.865,-7.478 -1.773,-8.004 0.275,-1.572 8.226,-4.045 11.283,-4.913 3.055,-0.867 10.805,-0.556 12.872,0.28 C 0.32,-2.275 1.627,-0.604 0,0" /></g><g
           transform="translate(559.9718,49.0684)"
           id="g372"><path
             id="path374"
             style="fill:none;stroke:#1a2e35;stroke-width:1;stroke-linecap:butt;stroke-linejoin:miter;stroke-miterlimit:10;stroke-dasharray:none;stroke-opacity:1"
             d="m 0,0 c -1.627,0.604 -6.112,1.735 -6.112,1.735 l -6.544,8.594 -1.516,-3.98 -9.956,3.177 c -1.077,-4.538 -1.865,-7.478 -1.773,-8.004 0.275,-1.572 8.226,-4.045 11.283,-4.913 3.055,-0.867 10.805,-0.556 12.872,0.28 C 0.32,-2.275 1.627,-0.604 0,0 Z" /></g></g></g><g
       id="g376"><g
         clip-path="url(#clipPath382)"
         id="g378"><g
           transform="translate(339.4567,315.3145)"
           id="g384"><path
             id="path386"
             style="fill:#ffffff;fill-opacity:1;fill-rule:nonzero;stroke:none"
             d="m 0,0 c 0,0 8.846,-7.925 10.137,-7.925 1.29,0 2.58,3.87 4.607,1.106 2.027,-2.764 0,-5.898 0,-5.898 0,0 8.109,-8.846 6.819,-10.505 -1.29,-1.658 -7.372,-5.16 -7.372,-5.16 l -1.29,-15.481 -16.587,4.607 -0.184,5.714 -8.662,5.713 c 0,0 -4.608,7.741 -1.475,15.297 C -10.874,-4.976 0,0 0,0" /></g><g
           transform="translate(339.4567,315.3145)"
           id="g388"><path
             id="path390"
             style="fill:none;stroke:#1a2e35;stroke-width:1;stroke-linecap:butt;stroke-linejoin:miter;stroke-miterlimit:10;stroke-dasharray:none;stroke-opacity:1"
             d="m 0,0 c 0,0 8.846,-7.925 10.137,-7.925 1.29,0 2.58,3.87 4.607,1.106 2.027,-2.764 0,-5.898 0,-5.898 0,0 8.109,-8.846 6.819,-10.505 -1.29,-1.658 -7.372,-5.16 -7.372,-5.16 l -1.29,-15.481 -16.587,4.607 -0.184,5.714 -8.662,5.713 c 0,0 -4.608,7.741 -1.475,15.297 C -10.874,-4.976 0,0 0,0 Z" /></g><g
           transform="translate(339.4567,315.3145)"
           id="g392"><path
             id="path394"
             style="fill:#1a2e35;fill-opacity:1;fill-rule:nonzero;stroke:none"
             d="m 0,0 c 0,0 -8.662,-7.556 -7.741,-8.478 0.922,-0.921 5.53,-2.211 4.792,-3.501 -0.737,-1.291 -2.764,-5.345 -2.764,-5.345 0,0 3.686,-2.028 3.502,-3.133 -0.185,-1.106 -1.106,-2.212 -1.659,-2.027 -0.553,0.184 -5.898,2.027 -6.451,-0.922 -0.553,-2.949 1.843,-5.713 3.871,-6.635 2.027,-0.921 5.345,1.106 5.345,1.106 0,0 -2.212,-4.423 -2.765,-4.607 -0.553,-0.185 -10.505,4.238 -14.376,5.897 -3.87,1.659 -7.372,4.055 -6.45,8.109 0.922,4.055 2.028,9.215 5.529,12.164 3.501,2.949 6.45,6.266 6.45,6.266 0,0 -4.975,2.765 -1.29,4.239 3.686,1.474 7.557,0 7.557,0 0,0 -1.291,4.054 2.027,3.318 C -1.105,5.713 0.553,3.501 0,0" /></g><g
           transform="translate(339.4567,315.3145)"
           id="g396"><path
             id="path398"
             style="fill:none;stroke:#1a2e35;stroke-width:1;stroke-linecap:butt;stroke-linejoin:miter;stroke-miterlimit:10;stroke-dasharray:none;stroke-opacity:1"
             d="m 0,0 c 0,0 -8.662,-7.556 -7.741,-8.478 0.922,-0.921 5.53,-2.211 4.792,-3.501 -0.737,-1.291 -2.764,-5.345 -2.764,-5.345 0,0 3.686,-2.028 3.502,-3.133 -0.185,-1.106 -1.106,-2.212 -1.659,-2.027 -0.553,0.184 -5.898,2.027 -6.451,-0.922 -0.553,-2.949 1.843,-5.713 3.871,-6.635 2.027,-0.921 5.345,1.106 5.345,1.106 0,0 -2.212,-4.423 -2.765,-4.607 -0.553,-0.185 -10.505,4.238 -14.376,5.897 -3.87,1.659 -7.372,4.055 -6.45,8.109 0.922,4.055 2.028,9.215 5.529,12.164 3.501,2.949 6.45,6.266 6.45,6.266 0,0 -4.975,2.765 -1.29,4.239 3.686,1.474 7.557,0 7.557,0 0,0 -1.291,4.054 2.027,3.318 C -1.105,5.713 0.553,3.501 0,0 Z" /></g><g
           transform="translate(353.6476,286.9326)"
           id="g400"><path
             id="path402"
             style="fill:#1a2e35;fill-opacity:1;fill-rule:nonzero;stroke:none"
             d="m 0,0 -5.897,-3.317 5.16,-3.686 z" /></g><g
           transform="translate(353.6476,286.9326)"
           id="g404"><path
             id="path406"
             style="fill:none;stroke:#1a2e35;stroke-width:1;stroke-linecap:butt;stroke-linejoin:miter;stroke-miterlimit:10;stroke-dasharray:none;stroke-opacity:1"
             d="m 0,0 -5.897,-3.317 5.16,-3.686 z" /></g><g
           transform="translate(342.4054,309.417)"
           id="g408"><path
             id="path410"
             style="fill:none;stroke:#1a2e35;stroke-width:1;stroke-linecap:butt;stroke-linejoin:miter;stroke-miterlimit:10;stroke-dasharray:none;stroke-opacity:1"
             d="M 0,0 C 0,0 -3.686,0 -3.317,-3.502" /></g><g
           transform="translate(346.5612,304.9185)"
           id="g412"><path
             id="path414"
             style="fill:#1a2e35;fill-opacity:1;fill-rule:nonzero;stroke:none"
             d="m 0,0 c 0.673,-0.83 0.802,-1.841 0.288,-2.257 -0.514,-0.417 -1.476,-0.082 -2.149,0.749 -0.673,0.83 -0.802,1.841 -0.288,2.257 C -1.635,1.166 -0.673,0.831 0,0" /></g><g
           transform="translate(325.9059,67.7852)"
           id="g416"><path
             id="path418"
             style="fill:#ffffff;fill-opacity:1;fill-rule:nonzero;stroke:none"
             d="m 0,0 c 0,0 0.91,-9.099 1.819,-10.463 0.91,-1.365 9.554,-5.686 11.374,-7.507 1.82,-1.819 -2.275,-3.184 -4.322,-4.093 -2.047,-0.911 -4.322,-0.683 -8.416,0.454 -4.095,1.137 -7.962,4.549 -10.464,5.687 -2.502,1.137 -8.871,3.184 -8.416,4.776 0.455,1.592 8.416,14.558 8.416,14.558 z" /></g><g
           transform="translate(325.9059,67.7852)"
           id="g420"><path
             id="path422"
             style="fill:none;stroke:#1a2e35;stroke-width:1;stroke-linecap:butt;stroke-linejoin:miter;stroke-miterlimit:10;stroke-dasharray:none;stroke-opacity:1"
             d="m 0,0 c 0,0 0.91,-9.099 1.819,-10.463 0.91,-1.365 9.554,-5.686 11.374,-7.507 1.82,-1.819 -2.275,-3.184 -4.322,-4.093 -2.047,-0.911 -4.322,-0.683 -8.416,0.454 -4.095,1.137 -7.962,4.549 -10.464,5.687 -2.502,1.137 -8.871,3.184 -8.416,4.776 0.455,1.592 8.416,14.558 8.416,14.558 z" /></g><g
           transform="translate(415.527,63.2363)"
           id="g424"><path
             id="path426"
             style="fill:#ffffff;fill-opacity:1;fill-rule:nonzero;stroke:none"
             d="m 0,0 c 0,0 10.008,-12.966 10.691,-13.193 1.641,-0.541 8.354,6.806 9.658,7.881 3.8,3.131 7.255,6.643 9.976,10.762 1.123,1.701 4.519,7.486 1.748,9.335 -3.436,2.29 -7.6,-3.095 -10.464,-4.322 -1.592,-0.683 -6.142,-2.73 -6.142,-2.73 z" /></g><g
           transform="translate(415.527,63.2363)"
           id="g428"><path
             id="path430"
             style="fill:none;stroke:#1a2e35;stroke-width:1;stroke-linecap:butt;stroke-linejoin:miter;stroke-miterlimit:10;stroke-dasharray:none;stroke-opacity:1"
             d="m 0,0 c 0,0 10.008,-12.966 10.691,-13.193 1.641,-0.541 8.354,6.806 9.658,7.881 3.8,3.131 7.255,6.643 9.976,10.762 1.123,1.701 4.519,7.486 1.748,9.335 -3.436,2.29 -7.6,-3.095 -10.464,-4.322 -1.592,-0.683 -6.142,-2.73 -6.142,-2.73 z" /></g><g
           transform="translate(334.5494,184.9297)"
           id="g432"><path
             id="path434"
             style="fill:#1a2e35;fill-opacity:1;fill-rule:nonzero;stroke:none"
             d="m 0,0 c 0,0 0.682,-11.601 1.592,-12.966 0.91,-1.364 4.095,-12.055 4.095,-12.055 l -7.279,-41.626 -18.425,-46.175 13.193,-5.914 26.386,48.676 c 0,0 9.099,23.43 9.326,24.112 0.227,0.682 52.09,-75.745 52.09,-75.745 l 10.918,7.05 -34.575,75.291 -17.06,40.49 z" /></g><g
           transform="translate(334.5494,184.9297)"
           id="g436"><path
             id="path438"
             style="fill:none;stroke:#1a2e35;stroke-width:1;stroke-linecap:butt;stroke-linejoin:miter;stroke-miterlimit:10;stroke-dasharray:none;stroke-opacity:1"
             d="m 0,0 c 0,0 0.682,-11.601 1.592,-12.966 0.91,-1.364 4.095,-12.055 4.095,-12.055 l -7.279,-41.626 -18.425,-46.175 13.193,-5.914 26.386,48.676 c 0,0 9.099,23.43 9.326,24.112 0.227,0.682 52.09,-75.745 52.09,-75.745 l 10.918,7.05 -34.575,75.291 -17.06,40.49 z" /></g><g
           transform="translate(314.7599,80.2959)"
           id="g440"><path
             id="path442"
             style="fill:#ffffff;fill-opacity:1;fill-rule:nonzero;stroke:none"
             d="m 0,0 -1.82,-10.236 14.558,-6.368 5.459,8.188 z" /></g><g
           transform="translate(314.7599,80.2959)"
           id="g444"><path
             id="path446"
             style="fill:none;stroke:#1a2e35;stroke-width:1;stroke-linecap:butt;stroke-linejoin:miter;stroke-miterlimit:10;stroke-dasharray:none;stroke-opacity:1"
             d="m 0,0 -1.82,-10.236 14.558,-6.368 5.459,8.188 z" /></g><g
           transform="translate(410.5226,65.7383)"
           id="g448"><path
             id="path450"
             style="fill:#ffffff;fill-opacity:1;fill-rule:nonzero;stroke:none"
             d="M 0,0 5.914,-5.914 20.472,5.231 15.013,12.056 Z" /></g><g
           transform="translate(410.5226,65.7383)"
           id="g452"><path
             id="path454"
             style="fill:none;stroke:#1a2e35;stroke-width:1;stroke-linecap:butt;stroke-linejoin:miter;stroke-miterlimit:10;stroke-dasharray:none;stroke-opacity:1"
             d="M 0,0 5.914,-5.914 20.472,5.231 15.013,12.056 Z" /></g><g
           transform="translate(333.3751,272.7412)"
           id="g456"><path
             id="path458"
             style="fill:#ffffff;fill-opacity:1;fill-rule:nonzero;stroke:none"
             d="m 0,0 c 0,0 -6.082,-22.484 -5.345,-28.382 0.737,-5.897 -1.29,-61.556 -1.29,-61.556 0,0 13.269,-4.054 28.751,-2.396 15.481,1.659 24.511,4.608 24.511,4.608 0,0 -15.481,61.372 -18.061,68.744 -2.58,7.371 -9.03,15.849 -9.03,15.849 z" /></g><g
           transform="translate(333.3751,272.7412)"
           id="g460"><path
             id="path462"
             style="fill:none;stroke:#1a2e35;stroke-width:1;stroke-linecap:butt;stroke-linejoin:miter;stroke-miterlimit:10;stroke-dasharray:none;stroke-opacity:1"
             d="m 0,0 c 0,0 -6.082,-22.484 -5.345,-28.382 0.737,-5.897 -1.29,-61.556 -1.29,-61.556 0,0 13.269,-4.054 28.751,-2.396 15.481,1.659 24.511,4.608 24.511,4.608 0,0 -15.481,61.372 -18.061,68.744 -2.58,7.371 -9.03,15.849 -9.03,15.849 z" /></g><g
           transform="translate(333.9279,278.6392)"
           id="g464"><path
             id="path466"
             style="fill:#ffffff;fill-opacity:1;fill-rule:nonzero;stroke:none"
             d="m 0,0 -2.396,-7.188 24.88,-6.45 0.738,8.293 z" /></g><g
           transform="translate(333.9279,278.6392)"
           id="g468"><path
             id="path470"
             style="fill:none;stroke:#1a2e35;stroke-width:1;stroke-linecap:butt;stroke-linejoin:miter;stroke-miterlimit:10;stroke-dasharray:none;stroke-opacity:1"
             d="m 0,0 -2.396,-7.188 24.88,-6.45 0.738,8.293 z" /></g><g
           transform="translate(391.2448,189.623)"
           id="g472"><path
             id="path474"
             style="fill:#ffffff;fill-opacity:1;fill-rule:nonzero;stroke:none"
             d="m 0,0 5.16,-1.29 c 0,0 2.212,3.133 3.871,3.686 1.658,0.552 3.685,0.184 5.713,0.184 2.027,0 3.87,2.765 5.529,1.474 1.659,-1.29 -0.921,-2.764 -1.843,-3.133 -0.922,-0.368 -5.345,-1.29 -5.345,-1.29 0,0 10.505,-3.133 11.242,-3.133 0.737,0 -0.553,-1.843 -1.474,-2.395 -0.921,-0.554 -4.055,-0.738 -4.055,-0.738 0,0 -5.16,-1.844 -7.74,-2.027 -2.58,-0.185 -9.399,2.027 -9.399,2.027 l -4.239,1.658 -2.581,0.922 z" /></g><g
           transform="translate(391.2448,189.623)"
           id="g476"><path
             id="path478"
             style="fill:none;stroke:#1a2e35;stroke-width:1;stroke-linecap:butt;stroke-linejoin:miter;stroke-miterlimit:10;stroke-dasharray:none;stroke-opacity:1"
             d="m 0,0 5.16,-1.29 c 0,0 2.212,3.133 3.871,3.686 1.658,0.552 3.685,0.184 5.713,0.184 2.027,0 3.87,2.765 5.529,1.474 1.659,-1.29 -0.921,-2.764 -1.843,-3.133 -0.922,-0.368 -5.345,-1.29 -5.345,-1.29 0,0 10.505,-3.133 11.242,-3.133 0.737,0 -0.553,-1.843 -1.474,-2.395 -0.921,-0.554 -4.055,-0.738 -4.055,-0.738 0,0 -5.16,-1.844 -7.74,-2.027 -2.58,-0.185 -9.399,2.027 -9.399,2.027 l -4.239,1.658 -2.581,0.922 z" /></g><g
           transform="translate(339.2726,262.605)"
           id="g480"><path
             id="path482"
             style="fill:#ffffff;fill-opacity:1;fill-rule:nonzero;stroke:#1a2e35;stroke-width:1;stroke-linecap:butt;stroke-linejoin:miter;stroke-miterlimit:10;stroke-dasharray:none;stroke-opacity:1"
             d="m 0,0 c 0,0 -7.741,-7.003 -5.713,-13.454 2.027,-6.45 50.866,-68.19 50.866,-68.19 l 10.137,9.583 -42.574,70.955" /></g><g
           transform="translate(347.9698,159.2266)"
           id="g484"><path
             id="path486"
             style="fill:none;stroke:#ffffff;stroke-width:1;stroke-linecap:butt;stroke-linejoin:miter;stroke-miterlimit:10;stroke-dasharray:none;stroke-opacity:1"
             d="M 0,0 14.33,-18.425" /></g></g></g><g
       id="g488"><g
         clip-path="url(#clipPath494)"
         id="g490"><g
           transform="translate(135.254,310.6685)"
           id="g496"><path
             id="path498"
             style="fill:#1a2e35;fill-opacity:1;fill-rule:nonzero;stroke:none"
             d="m 0,0 c 0,0 -5.932,-5.788 -6.366,-9.405 -0.434,-3.617 -5.499,-18.665 -3.762,-21.559 1.736,-2.894 10.996,-8.682 10.996,-8.682 0,0 -11.285,-2.894 -10.417,-8.826 0.868,-5.932 4.919,-6.511 4.919,-6.511 0,0 -9.116,-5.353 -6.077,-9.261 3.039,-3.906 10.273,-3.327 11.431,-0.144 1.157,3.183 -1.013,7.235 -1.013,7.235 0,0 5.788,1.736 7.234,4.195 1.448,2.46 1.013,4.775 1.013,4.775 0,0 5.064,-0.868 8.103,1.303 3.039,2.17 4.341,8.971 4.341,8.971 0,0 10.707,6.077 14.469,15.916 3.762,9.839 2.46,13.89 0,16.929 C 32.411,-2.026 14.469,6.945 8.971,5.788 3.473,4.63 0,0 0,0" /></g><g
           transform="translate(135.254,310.6685)"
           id="g500"><path
             id="path502"
             style="fill:none;stroke:#1a2e35;stroke-width:1;stroke-linecap:butt;stroke-linejoin:miter;stroke-miterlimit:10;stroke-dasharray:none;stroke-opacity:1"
             d="m 0,0 c 0,0 -5.932,-5.788 -6.366,-9.405 -0.434,-3.617 -5.499,-18.665 -3.762,-21.559 1.736,-2.894 10.996,-8.682 10.996,-8.682 0,0 -11.285,-2.894 -10.417,-8.826 0.868,-5.932 4.919,-6.511 4.919,-6.511 0,0 -9.116,-5.353 -6.077,-9.261 3.039,-3.906 10.273,-3.327 11.431,-0.144 1.157,3.183 -1.013,7.235 -1.013,7.235 0,0 5.788,1.736 7.234,4.195 1.448,2.46 1.013,4.775 1.013,4.775 0,0 5.064,-0.868 8.103,1.303 3.039,2.17 4.341,8.971 4.341,8.971 0,0 10.707,6.077 14.469,15.916 3.762,9.839 2.46,13.89 0,16.929 C 32.411,-2.026 14.469,6.945 8.971,5.788 3.473,4.63 0,0 0,0 Z" /></g><g
           transform="translate(147.5529,274.0615)"
           id="g504"><path
             id="path506"
             style="fill:#ffffff;fill-opacity:1;fill-rule:nonzero;stroke:none"
             d="m 0,0 2.894,-13.457 14.903,8.682 -4.051,5.788 C 13.746,1.013 3.473,-2.46 0,0" /></g><g
           transform="translate(147.5529,274.0615)"
           id="g508"><path
             id="path510"
             style="fill:none;stroke:#1a2e35;stroke-width:1;stroke-linecap:butt;stroke-linejoin:miter;stroke-miterlimit:10;stroke-dasharray:none;stroke-opacity:1"
             d="m 0,0 2.894,-13.457 14.903,8.682 -4.051,5.788 C 13.746,1.013 3.473,-2.46 0,0 Z" /></g><g
           transform="translate(146.6847,302.2764)"
           id="g512"><path
             id="path514"
             style="fill:#ffffff;fill-opacity:1;fill-rule:nonzero;stroke:none"
             d="m 0,0 -9.115,-16.061 c 0,0 3.327,-7.379 5.353,-9.694 2.026,-2.315 4.486,-5.209 11.286,-5.932 6.801,-0.724 10.852,5.932 11.142,10.272 0.289,4.341 -4.341,17.219 -4.341,17.219 z" /></g><g
           transform="translate(146.6847,302.2764)"
           id="g516"><path
             id="path518"
             style="fill:none;stroke:#1a2e35;stroke-width:1;stroke-linecap:butt;stroke-linejoin:miter;stroke-miterlimit:10;stroke-dasharray:none;stroke-opacity:1"
             d="m 0,0 -9.115,-16.061 c 0,0 3.327,-7.379 5.353,-9.694 2.026,-2.315 4.486,-5.209 11.286,-5.932 6.801,-0.724 10.852,5.932 11.142,10.272 0.289,4.341 -4.341,17.219 -4.341,17.219 z" /></g><g
           transform="translate(138.7267,284.7686)"
           id="g520"><path
             id="path522"
             style="fill:#ffffff;fill-opacity:1;fill-rule:nonzero;stroke:none"
             d="m 0,0 c 0,0 -4.341,1.736 -3.328,-1.881 1.013,-3.618 5.643,-3.618 5.643,-3.618 z" /></g><g
           transform="translate(138.7267,284.7686)"
           id="g524"><path
             id="path526"
             style="fill:none;stroke:#1a2e35;stroke-width:1;stroke-linecap:butt;stroke-linejoin:miter;stroke-miterlimit:10;stroke-dasharray:none;stroke-opacity:1"
             d="m 0,0 c 0,0 -4.341,1.736 -3.328,-1.881 1.013,-3.618 5.643,-3.618 5.643,-3.618 z" /></g><g
           transform="translate(162.1671,294.3184)"
           id="g528"><path
             id="path530"
             style="fill:#ffffff;fill-opacity:1;fill-rule:nonzero;stroke:none"
             d="M 0,0 C 0,0 0.579,2.459 2.749,1.013 4.919,-0.434 2.025,-5.788 2.025,-5.788 Z" /></g><g
           transform="translate(162.1671,294.3184)"
           id="g532"><path
             id="path534"
             style="fill:none;stroke:#1a2e35;stroke-width:1;stroke-linecap:butt;stroke-linejoin:miter;stroke-miterlimit:10;stroke-dasharray:none;stroke-opacity:1"
             d="M 0,0 C 0,0 0.579,2.459 2.749,1.013 4.919,-0.434 2.025,-5.788 2.025,-5.788 Z" /></g><g
           transform="translate(150.881,286.5049)"
           id="g536"><path
             id="path538"
             style="fill:none;stroke:#1a2e35;stroke-width:1;stroke-linecap:butt;stroke-linejoin:miter;stroke-miterlimit:10;stroke-dasharray:none;stroke-opacity:1"
             d="m 0,0 1.881,-4.341 2.894,1.158" /></g><g
           transform="translate(150.5914,279.1255)"
           id="g540"><path
             id="path542"
             style="fill:none;stroke:#1a2e35;stroke-width:1;stroke-linecap:butt;stroke-linejoin:miter;stroke-miterlimit:10;stroke-dasharray:none;stroke-opacity:1"
             d="M 0,0 C 0,0 5.933,-2.604 8.248,3.762" /></g><g
           transform="translate(154.7877,289.5435)"
           id="g544"><path
             id="path546"
             style="fill:none;stroke:#1a2e35;stroke-width:1;stroke-linecap:butt;stroke-linejoin:miter;stroke-miterlimit:10;stroke-dasharray:none;stroke-opacity:1"
             d="M 0,0 C 0,0 1.881,2.459 4.341,1.736" /></g><g
           transform="translate(151.7492,295.0415)"
           id="g548"><path
             id="path550"
             style="fill:none;stroke:#1a2e35;stroke-width:1;stroke-linecap:butt;stroke-linejoin:miter;stroke-miterlimit:10;stroke-dasharray:none;stroke-opacity:1"
             d="M 0,0 C 0,0 2.315,2.894 5.788,1.881" /></g><g
           transform="translate(146.5402,293.1606)"
           id="g552"><path
             id="path554"
             style="fill:none;stroke:#1a2e35;stroke-width:1;stroke-linecap:butt;stroke-linejoin:miter;stroke-miterlimit:10;stroke-dasharray:none;stroke-opacity:1"
             d="M 0,0 C 0,0 -4.051,1.736 -5.788,-2.894" /></g><g
           transform="translate(147.4494,286.8066)"
           id="g556"><path
             id="path558"
             style="fill:#1a2e35;fill-opacity:1;fill-rule:nonzero;stroke:none"
             d="m 0,0 c 0.37,-0.753 0.262,-1.564 -0.24,-1.811 -0.502,-0.246 -1.209,0.165 -1.578,0.918 -0.37,0.753 -0.263,1.564 0.239,1.81 C -1.076,1.164 -0.37,0.753 0,0" /></g><g
           transform="translate(218.6549,298.0625)"
           id="g560"><path
             id="path562"
             style="fill:#ffffff;fill-opacity:1;fill-rule:nonzero;stroke:none"
             d="m 0,0 c 0,0 8.268,5.61 8.859,6.201 0.59,0.591 4.134,2.953 5.758,4.281 1.624,1.329 2.067,5.759 3.839,5.02 1.772,-0.738 2.214,-2.51 1.624,-3.838 -0.591,-1.329 -3.544,-3.691 -3.544,-3.691 0,0 8.121,1.624 8.564,0.738 0.442,-0.886 0.442,-2.806 -0.148,-3.544 -0.591,-0.738 -1.329,-1.624 -1.329,-1.624 0,0 -0.59,-5.02 -1.476,-6.644 -0.886,-1.624 -4.282,-2.657 -6.644,-2.657 -2.362,0 -7.235,-0.591 -7.235,-0.591 L 2.806,-8.563 Z" /></g><g
           transform="translate(218.6549,298.0625)"
           id="g564"><path
             id="path566"
             style="fill:none;stroke:#1a2e35;stroke-width:1;stroke-linecap:butt;stroke-linejoin:miter;stroke-miterlimit:10;stroke-dasharray:none;stroke-opacity:1"
             d="m 0,0 c 0,0 8.268,5.61 8.859,6.201 0.59,0.591 4.134,2.953 5.758,4.281 1.624,1.329 2.067,5.759 3.839,5.02 1.772,-0.738 2.214,-2.51 1.624,-3.838 -0.591,-1.329 -3.544,-3.691 -3.544,-3.691 0,0 8.121,1.624 8.564,0.738 0.442,-0.886 0.442,-2.806 -0.148,-3.544 -0.591,-0.738 -1.329,-1.624 -1.329,-1.624 0,0 -0.59,-5.02 -1.476,-6.644 -0.886,-1.624 -4.282,-2.657 -6.644,-2.657 -2.362,0 -7.235,-0.591 -7.235,-0.591 L 2.806,-8.563 Z" /></g><g
           transform="translate(146.4269,208.7852)"
           id="g568"><path
             id="path570"
             style="fill:#ffffff;fill-opacity:1;fill-rule:nonzero;stroke:none"
             d="m 0,0 -0.386,-6.753 42.255,3.858 -1.93,6.175 z" /></g><g
           transform="translate(146.4269,208.7852)"
           id="g572"><path
             id="path574"
             style="fill:none;stroke:#1a2e35;stroke-width:1;stroke-linecap:butt;stroke-linejoin:miter;stroke-miterlimit:10;stroke-dasharray:none;stroke-opacity:1"
             d="m 0,0 -0.386,-6.753 42.255,3.858 -1.93,6.175 z" /></g><g
           transform="translate(149.7848,263.105)"
           id="g576"><path
             id="path578"
             style="fill:#ffffff;fill-opacity:1;fill-rule:nonzero;stroke:none"
             d="m 0,0 c 0,0 -7.359,-4.308 -9.307,-7.647 -1.947,-3.338 -17.249,-27.822 -16.136,-30.604 1.112,-2.783 6.121,-6.122 8.346,-6.122 2.226,0 21.98,-3.059 21.98,-3.059 L 1.775,-3.057 Z" /></g><g
           transform="translate(149.7848,263.105)"
           id="g580"><path
             id="path582"
             style="fill:none;stroke:#1a2e35;stroke-width:1;stroke-linecap:butt;stroke-linejoin:miter;stroke-miterlimit:10;stroke-dasharray:none;stroke-opacity:1"
             d="m 0,0 c 0,0 -7.359,-4.308 -9.307,-7.647 -1.947,-3.338 -17.249,-27.822 -16.136,-30.604 1.112,-2.783 6.121,-6.122 8.346,-6.122 2.226,0 21.98,-3.059 21.98,-3.059 L 1.775,-3.057 Z" /></g><g
           transform="translate(144.9298,229.3057)"
           id="g584"><path
             id="path586"
             style="fill:none;stroke:#1a2e35;stroke-width:1;stroke-linecap:butt;stroke-linejoin:miter;stroke-miterlimit:10;stroke-dasharray:none;stroke-opacity:1"
             d="M 0,0 C 0,0 -6.399,-5.009 -11.963,-6.399" /></g><g
           transform="translate(143.6964,228.0898)"
           id="g588"><path
             id="path590"
             style="fill:none;stroke:#1a2e35;stroke-width:1;stroke-linecap:butt;stroke-linejoin:miter;stroke-miterlimit:10;stroke-dasharray:none;stroke-opacity:1"
             d="M 0,0 C 0,0 -2.168,-4.591 -4.974,-6.377" /></g><g
           transform="translate(218.6549,298.0625)"
           id="g592"><path
             id="path594"
             style="fill:#ffffff;fill-opacity:1;fill-rule:nonzero;stroke:none"
             d="m 0,0 c 0,0 -65.258,-32.187 -69.983,-34.401 -4.725,-2.215 -9.597,-12.55 -8.415,-20.67 1.181,-8.12 6.791,-16.979 7.234,-18.308 0.443,-1.329 -1.476,-12.402 -1.919,-14.469 -0.443,-2.067 -0.295,-3.691 1.624,-4.577 1.919,-0.886 38.387,4.134 39.716,4.872 1.328,0.739 2.51,2.51 1.624,5.611 -0.886,3.1 -4.577,11.22 -4.577,11.959 0,0.738 -6.348,20.965 -6.348,20.965 0,0 29.823,25.247 33.219,29.381 3.396,4.134 10.631,11.074 10.631,11.074 z" /></g><g
           transform="translate(218.6549,298.0625)"
           id="g596"><path
             id="path598"
             style="fill:none;stroke:#1a2e35;stroke-width:1;stroke-linecap:butt;stroke-linejoin:miter;stroke-miterlimit:10;stroke-dasharray:none;stroke-opacity:1"
             d="m 0,0 c 0,0 -65.258,-32.187 -69.983,-34.401 -4.725,-2.215 -9.597,-12.55 -8.415,-20.67 1.181,-8.12 6.791,-16.979 7.234,-18.308 0.443,-1.329 -1.476,-12.402 -1.919,-14.469 -0.443,-2.067 -0.295,-3.691 1.624,-4.577 1.919,-0.886 38.387,4.134 39.716,4.872 1.328,0.739 2.51,2.51 1.624,5.611 -0.886,3.1 -4.577,11.22 -4.577,11.959 0,0.738 -6.348,20.965 -6.348,20.965 0,0 29.823,25.247 33.219,29.381 3.396,4.134 10.631,11.074 10.631,11.074 z" /></g><g
           transform="translate(156.9357,225.583)"
           id="g600"><path
             id="path602"
             style="fill:none;stroke:#1a2e35;stroke-width:1;stroke-linecap:butt;stroke-linejoin:miter;stroke-miterlimit:10;stroke-dasharray:none;stroke-opacity:1"
             d="M 0,0 C -1.257,-1.178 -2.366,-2.106 -3.244,-2.671" /></g><g
           transform="translate(159.5646,236.2412)"
           id="g604"><path
             id="path606"
             style="fill:none;stroke:#1a2e35;stroke-width:1;stroke-linecap:butt;stroke-linejoin:miter;stroke-miterlimit:10;stroke-dasharray:none;stroke-opacity:1"
             d="m 0,0 c 8.131,5.266 18.046,12.803 18.046,12.803 0,0 -10.634,-13.291 -18.309,-21.134" /></g><g
           transform="translate(150.444,231.3271)"
           id="g608"><path
             id="path610"
             style="fill:none;stroke:#1a2e35;stroke-width:1;stroke-linecap:butt;stroke-linejoin:miter;stroke-miterlimit:10;stroke-dasharray:none;stroke-opacity:1"
             d="M 0,0 C 1.421,0.337 3.865,1.64 6.722,3.396" /></g><g
           transform="translate(165.3561,228.9648)"
           id="g612"><path
             id="path614"
             style="fill:none;stroke:#1a2e35;stroke-width:1;stroke-linecap:butt;stroke-linejoin:miter;stroke-miterlimit:10;stroke-dasharray:none;stroke-opacity:1"
             d="M 0,0 C 0,0 -4.725,-5.02 -6.644,-6.349" /></g><g
           transform="translate(181.0827,256.3325)"
           id="g616"><path
             id="path618"
             style="fill:none;stroke:#1a2e35;stroke-width:1;stroke-linecap:butt;stroke-linejoin:miter;stroke-miterlimit:10;stroke-dasharray:none;stroke-opacity:1"
             d="M 0,0 C -0.784,-1.026 -1.555,-1.902 -2.291,-2.563" /></g><g
           transform="translate(192.3746,277.2446)"
           id="g620"><path
             id="path622"
             style="fill:none;stroke:#1a2e35;stroke-width:1;stroke-linecap:butt;stroke-linejoin:miter;stroke-miterlimit:10;stroke-dasharray:none;stroke-opacity:1"
             d="M 0,0 C 0,0 -4.556,-10.66 -9.273,-18.007" /></g><g
           transform="translate(214.964,296.1431)"
           id="g624"><path
             id="path626"
             style="fill:none;stroke:#1a2e35;stroke-width:1;stroke-linecap:butt;stroke-linejoin:miter;stroke-miterlimit:10;stroke-dasharray:none;stroke-opacity:1"
             d="M 0,0 3.691,-9.597" /></g><g
           transform="translate(165.1427,104.9814)"
           id="g628"><path
             id="path630"
             style="fill:#ffffff;fill-opacity:1;fill-rule:nonzero;stroke:none"
             d="m 0,0 -7.911,-30.679 -5.016,-7.717 -3.281,-10.998 6.753,-3.28 c 0,0 3.666,3.666 5.789,1.543 2.122,-2.122 2.315,-5.788 2.315,-5.788 0,0 10.226,-3.087 12.349,-2.894 2.122,0.193 5.402,-0.386 5.788,0.579 0.386,0.964 0.579,8.296 -0.386,9.261 -0.671,0.671 -7.685,2.915 -12.155,6.753 -1.954,1.677 -3.432,6.77 -3.666,6.947 -0.772,0.578 15.821,34.15 15.821,34.15 z" /></g><g
           transform="translate(165.1427,104.9814)"
           id="g632"><path
             id="path634"
             style="fill:none;stroke:#1a2e35;stroke-width:1;stroke-linecap:butt;stroke-linejoin:miter;stroke-miterlimit:10;stroke-dasharray:none;stroke-opacity:1"
             d="m 0,0 -7.911,-30.679 -5.016,-7.717 -3.281,-10.998 6.753,-3.28 c 0,0 3.666,3.666 5.789,1.543 2.122,-2.122 2.315,-5.788 2.315,-5.788 0,0 10.226,-3.087 12.349,-2.894 2.122,0.193 5.402,-0.386 5.788,0.579 0.386,0.964 0.579,8.296 -0.386,9.261 -0.671,0.671 -7.685,2.915 -12.155,6.753 -1.954,1.677 -3.432,6.77 -3.666,6.947 -0.772,0.578 15.821,34.15 15.821,34.15 z" /></g><g
           transform="translate(181.9288,45.7471)"
           id="g636"><path
             id="path638"
             style="fill:#1a2e35;fill-opacity:1;fill-rule:nonzero;stroke:none"
             d="m 0,0 c 0.386,0.965 0.579,8.297 -0.386,9.262 -0.671,0.671 -7.685,2.915 -12.156,6.753 -1.954,1.676 -3.431,6.769 -3.666,6.946 -0.078,0.059 0.03,0.47 0.273,1.137 l -9.331,3.583 -4.447,-6.843 -3.281,-10.997 6.753,-3.28 c 0,0 3.666,3.666 5.789,1.543 2.122,-2.123 2.315,-5.789 2.315,-5.789 0,0 10.226,-3.086 12.348,-2.893 C -3.666,-0.386 -0.386,-0.965 0,0" /></g><g
           transform="translate(181.9288,45.7471)"
           id="g640"><path
             id="path642"
             style="fill:none;stroke:#1a2e35;stroke-width:1;stroke-linecap:butt;stroke-linejoin:miter;stroke-miterlimit:10;stroke-dasharray:none;stroke-opacity:1"
             d="m 0,0 c 0.386,0.965 0.579,8.297 -0.386,9.262 -0.671,0.671 -7.685,2.915 -12.156,6.753 -1.954,1.676 -3.431,6.769 -3.666,6.946 -0.078,0.059 0.03,0.47 0.273,1.137 l -9.331,3.583 -4.447,-6.843 -3.281,-10.997 6.753,-3.28 c 0,0 3.666,3.666 5.789,1.543 2.122,-2.123 2.315,-5.789 2.315,-5.789 0,0 10.226,-3.086 12.348,-2.893 C -3.666,-0.386 -0.386,-0.965 0,0 Z" /></g><g
           transform="translate(194.4699,114.4355)"
           id="g644"><path
             id="path646"
             style="fill:#ffffff;fill-opacity:1;fill-rule:nonzero;stroke:none"
             d="m 0,0 18.889,-47.137 c 0,0 -1.215,-7.119 0,-9.029 1.216,-1.91 3.994,-8.856 3.994,-8.856 l 10.072,2.431 c 0,0 -0.869,3.473 1.91,3.299 2.779,-0.174 4.862,-1.389 4.862,-1.389 0,0 8.162,4.341 10.593,5.731 2.431,1.388 3.646,3.299 3.473,3.993 -0.174,0.695 -2.605,6.078 -5.383,5.558 -2.779,-0.522 -7.988,-2.78 -10.593,-2.78 -2.605,0 -8.335,1.911 -9.551,3.994 -1.215,2.084 -9.357,37.046 -9.357,37.046 L 16.593,9.647 8.297,38.01 Z" /></g><g
           transform="translate(194.4699,114.4355)"
           id="g648"><path
             id="path650"
             style="fill:none;stroke:#1a2e35;stroke-width:1;stroke-linecap:butt;stroke-linejoin:miter;stroke-miterlimit:10;stroke-dasharray:none;stroke-opacity:1"
             d="m 0,0 18.889,-47.137 c 0,0 -1.215,-7.119 0,-9.029 1.216,-1.91 3.994,-8.856 3.994,-8.856 l 10.072,2.431 c 0,0 -0.869,3.473 1.91,3.299 2.779,-0.174 4.862,-1.389 4.862,-1.389 0,0 8.162,4.341 10.593,5.731 2.431,1.388 3.646,3.299 3.473,3.993 -0.174,0.695 -2.605,6.078 -5.383,5.558 -2.779,-0.522 -7.988,-2.78 -10.593,-2.78 -2.605,0 -8.335,1.911 -9.551,3.994 -1.215,2.084 -9.357,37.046 -9.357,37.046 L 16.593,9.647 8.297,38.01 Z" /></g><g
           transform="translate(248.2628,63.4785)"
           id="g652"><path
             id="path654"
             style="fill:#1a2e35;fill-opacity:1;fill-rule:nonzero;stroke:none"
             d="m 0,0 c -0.174,0.695 -2.605,6.078 -5.383,5.558 -2.779,-0.522 -7.988,-2.78 -10.593,-2.78 -2.605,0 -8.335,1.91 -9.551,3.994 -0.119,0.206 -0.308,0.739 -0.548,1.517 L -35.17,4.485 -34.904,3.82 c 0,0 -1.215,-7.119 0,-9.029 1.216,-1.91 3.994,-8.856 3.994,-8.856 l 10.072,2.431 c 0,0 -0.869,3.473 1.91,3.299 2.779,-0.174 4.862,-1.389 4.862,-1.389 0,0 8.162,4.341 10.593,5.731 C -1.042,-2.604 0.173,-0.694 0,0" /></g><g
           transform="translate(248.2628,63.4785)"
           id="g656"><path
             id="path658"
             style="fill:none;stroke:#1a2e35;stroke-width:1;stroke-linecap:butt;stroke-linejoin:miter;stroke-miterlimit:10;stroke-dasharray:none;stroke-opacity:1"
             d="m 0,0 c -0.174,0.695 -2.605,6.078 -5.383,5.558 -2.779,-0.522 -7.988,-2.78 -10.593,-2.78 -2.605,0 -8.335,1.91 -9.551,3.994 -0.119,0.206 -0.308,0.739 -0.548,1.517 L -35.17,4.485 -34.904,3.82 c 0,0 -1.215,-7.119 0,-9.029 1.216,-1.91 3.994,-8.856 3.994,-8.856 l 10.072,2.431 c 0,0 -0.869,3.473 1.91,3.299 2.779,-0.174 4.862,-1.389 4.862,-1.389 0,0 8.162,4.341 10.593,5.731 C -1.042,-2.604 0.173,-0.694 0,0 Z" /></g><g
           transform="translate(146.0412,202.0322)"
           id="g660"><path
             id="path662"
             style="fill:#1a2e35;fill-opacity:1;fill-rule:nonzero;stroke:none"
             d="m 0,0 -12.734,-100.331 c 0,0 16.593,-2.122 35.694,-1.544 19.102,0.579 24.118,1.351 24.118,1.351 l 9.84,45.728 10.419,-39.939 4.824,1.543 c 0,0 -5.402,32.415 -8.49,39.361 -3.087,6.945 -21.416,57.689 -21.416,57.689 z" /></g><g
           transform="translate(146.0412,202.0322)"
           id="g664"><path
             id="path666"
             style="fill:none;stroke:#1a2e35;stroke-width:1;stroke-linecap:butt;stroke-linejoin:miter;stroke-miterlimit:10;stroke-dasharray:none;stroke-opacity:1"
             d="m 0,0 -12.734,-100.331 c 0,0 16.593,-2.122 35.694,-1.544 19.102,0.579 24.118,1.351 24.118,1.351 l 9.84,45.728 10.419,-39.939 4.824,1.543 c 0,0 -5.402,32.415 -8.49,39.361 -3.087,6.945 -21.416,57.689 -21.416,57.689 z" /></g></g></g></g></svg>